<svg width="54" height="54" viewBox="0 0 54 54" fill="none" xmlns="http://www.w3.org/2000/svg">
<g clip-path="url(#clip0_9_1336)">
<path d="M53.4736 27.6219C53.4736 25.7865 53.3248 23.9412 53.0073 22.1356H27.54V32.5328H42.1239C41.5188 35.8861 39.5742 38.8525 36.7269 40.7375V47.4838H45.4276C50.537 42.7812 53.4736 35.8365 53.4736 27.6219Z" fill="#4285F4"/>
<path d="M27.54 54.0019C34.822 54.0019 40.9631 51.6109 45.4375 47.4838L36.7367 40.7375C34.316 42.3844 31.1909 43.3169 27.5499 43.3169C20.506 43.3169 14.5336 38.5648 12.3906 32.1757H3.41211V39.1303C7.99561 48.2477 17.3313 54.0019 27.54 54.0019Z" fill="#34A853"/>
<path d="M12.3808 32.1756C11.2498 28.8223 11.2498 25.1912 12.3808 21.8379V14.8833H3.41217C-0.417337 22.5125 -0.417337 31.501 3.41217 39.1302L12.3808 32.1756Z" fill="#FBBC04"/>
<path d="M27.54 10.6867C31.3893 10.6272 35.1097 12.0757 37.8975 14.7345L45.6061 7.02589C40.725 2.44239 34.2466 -0.0775485 27.54 0.0018195C17.3313 0.0018195 7.99561 5.756 3.41211 14.8833L12.3807 21.8379C14.5137 15.4389 20.4961 10.6867 27.54 10.6867Z" fill="#EA4335"/>
</g>
<defs>
<clipPath id="clip0_9_1336">
<rect width="54" height="54" fill="white"/>
</clipPath>
</defs>
</svg>
