<svg width="25" height="61" viewBox="0 0 25 61" fill="none" xmlns="http://www.w3.org/2000/svg">
<path d="M8.19292 14.6302C8.49092 14.5883 8.80726 14.554 9.12818 14.5236C8.71098 14.5388 8.29836 14.5579 7.88116 14.5807C7.8399 14.615 7.80322 14.6493 7.76196 14.6874C7.8995 14.6645 8.04163 14.6493 8.19292 14.6302Z" fill="#C44949"/>
<path d="M6.46428 21.7894C6.4872 21.1836 6.51013 20.6008 6.53306 20.0564C6.59724 18.5419 6.67517 17.2843 6.73477 16.3986C6.75311 16.065 6.78062 15.7851 6.79896 15.5666C6.21212 16.1264 5.66656 16.6823 5.15308 17.2421V23.3039C5.55194 22.8093 5.99206 22.3031 6.46428 21.7894Z" fill="#C44949"/>
<path d="M6.95525 16.3986C7.01485 17.2804 7.09278 18.5419 7.15697 20.0564C7.17072 20.3669 7.18448 20.6928 7.19823 21.0226C8.8487 19.3394 10.843 17.5987 12.9657 15.9232C13.3096 15.6548 13.6442 15.3864 13.9743 15.1142C13.8322 15.1027 13.6901 15.095 13.5434 15.0835C13.0941 15.0605 12.6356 15.026 12.1771 15.0106C11.7187 14.9915 11.2602 14.9723 10.8063 14.9646C10.3525 14.9531 9.90775 14.9455 9.4768 14.9493C9.04584 14.9493 8.62864 14.9493 8.22978 14.9646C7.94553 14.9723 7.67503 14.98 7.41829 14.9915C7.23949 15.1563 7.06069 15.3212 6.88647 15.4861C6.90481 15.7161 6.93233 16.0229 6.95525 16.3986Z" fill="#C44949"/>
<path d="M16.3627 24.5345C17.5455 23.4878 18.6412 22.4526 19.6544 21.448L19.2693 15.6892C19.2143 15.6815 19.1455 15.67 19.063 15.6585C18.3203 16.4905 17.4997 17.3762 16.6057 18.2925L16.3627 24.5345Z" fill="#5C78A1"/>
<path d="M7.36728 28.1387C7.37187 29.1317 7.38104 30.1401 7.38562 31.1485C7.38562 31.528 7.38104 31.9076 7.37646 32.2872C7.50941 32.153 7.64236 32.0227 7.7799 31.8885C7.78448 31.7313 7.78907 31.5741 7.79366 31.4207C7.80283 30.9644 7.82575 30.5235 7.84408 30.1056C7.85784 29.6877 7.88535 29.2928 7.90828 28.9285C7.99538 27.4677 8.12375 26.4977 8.12375 26.4977C8.12375 26.4977 8.24753 27.4715 8.33922 28.9285C8.36215 29.2928 8.38966 29.6877 8.40341 30.1056C8.41716 30.4698 8.4355 30.8532 8.44926 31.2482C9.82006 29.9561 11.3513 28.6486 12.9651 27.3757C13.8729 26.6587 14.7394 25.9379 15.5738 25.2209L15.3537 19.5349C13.6666 21.1798 11.7502 22.8974 9.60459 24.5845C8.79769 25.2209 8.04581 25.8651 7.34436 26.5092C7.35353 27.0498 7.36728 27.5904 7.36728 28.1387Z" fill="#5C78A1"/>
<path d="M6.33133 27.4791C5.91871 27.8855 5.52902 28.292 5.15308 28.6984V34.7601C5.50609 34.3154 5.90038 33.8629 6.31758 33.4028C6.31299 32.6552 6.30841 31.9037 6.30382 31.1522C6.30841 30.1438 6.31757 29.1355 6.32216 28.1424C6.32674 27.92 6.32675 27.6977 6.33133 27.4791Z" fill="#5C78A1"/>
<path d="M15.9545 35.0937L15.7803 30.5771C13.9923 32.3485 11.9292 34.2157 9.6094 36.0446C9.21512 36.3551 8.83459 36.6695 8.46324 36.9878C8.46324 37.0376 8.45866 37.0913 8.45866 37.1411C8.44949 37.5974 8.42656 38.0383 8.40823 38.4562C8.38989 38.8742 8.36696 39.2691 8.34404 39.6333C8.25693 41.0941 8.12856 42.0641 8.12856 42.0641C8.12856 42.0641 8.00019 41.0903 7.91309 39.6333C7.89016 39.2691 7.86265 38.8742 7.8489 38.4562C7.83515 38.1687 7.82139 37.8658 7.81222 37.5552C7.64259 37.7086 7.47296 37.8581 7.30791 38.0115C7.29416 38.6288 7.27124 39.2269 7.2529 39.8058C7.22997 40.6724 7.1933 41.4929 7.16121 42.2482C7.1337 42.8808 7.10619 43.4636 7.0741 43.9965C8.75207 42.2865 10.8197 40.5228 12.9699 38.832C14.4278 37.6856 15.7803 36.5277 17.0365 35.3889L17.2061 29.1278C16.8669 29.4844 16.5139 29.8448 16.1471 30.2129L15.9545 35.0937Z" fill="#C44949"/>
<path d="M17.2931 29.0282L17.4536 35.0018C18.2146 34.3001 18.939 33.61 19.6221 32.9313L19.833 27.506L19.8422 27.7399V26.2216C19.0903 27.0958 18.2375 28.039 17.2931 29.0282Z" fill="#C44949"/>
<path d="M6.53764 42.2482C6.50554 41.4929 6.46887 40.6724 6.44595 39.8058C6.43678 39.4953 6.4276 39.177 6.41385 38.855C5.97373 39.2882 5.55194 39.7215 5.15308 40.1547V46.1475C5.5932 45.5877 6.09751 45.0164 6.64308 44.4375C6.6064 43.7895 6.56973 43.0572 6.53764 42.2482Z" fill="#C44949"/>
<path d="M9.78809 47.3514C9.89812 47.3514 10.0081 47.3514 10.1182 47.3476C10.3382 47.3399 10.5629 47.3323 10.7921 47.3284C11.246 47.3208 11.7045 47.2939 12.1629 47.2671C12.6214 47.2479 13.0799 47.2057 13.5291 47.1751C13.9784 47.1367 14.4232 47.0946 14.8495 47.0524C15.2759 47.0025 15.6885 46.9642 16.0782 46.9143C16.3028 46.8875 16.5183 46.8607 16.7292 46.83L16.8897 40.9139C14.9 42.9614 12.5297 45.1775 9.78809 47.3514Z" fill="#5C78A1"/>
<path d="M17.756 46.182C18.242 45.7296 18.7096 45.2849 19.1635 44.8401L19.4203 38.1572C18.8609 38.7975 18.2512 39.4685 17.5956 40.1663L17.756 46.182Z" fill="#5C78A1"/>
<path d="M23.9868 8.39673C23.7667 6.37614 22.5839 4.3709 20.6629 2.80658C18.4394 0.996869 15.5465 0 12.5252 0H12.4977H12.4748C9.44892 0 6.56061 0.996869 4.33706 2.80658C2.4161 4.3709 1.23326 6.37614 1.0132 8.39673C0.417198 8.63828 0 9.15588 0 9.72333V10.7279C0 11.2033 0.297999 11.6097 0.742708 11.8283V12.2193C0.742708 12.5644 0.898584 12.8827 1.17825 13.1165C1.32954 13.2431 1.50834 13.3389 1.70548 13.4003V13.6993C1.70548 14.3089 2.20062 14.7997 2.87915 14.9186V47.3207C2.20062 47.4358 1.70548 47.9304 1.70548 48.5362V48.8352C1.50834 48.8966 1.32954 48.9924 1.17825 49.1189C0.898584 49.3528 0.742708 49.6749 0.742708 50.0161V50.4034C0.632677 50.4571 0.531813 50.5222 0.440121 50.5989C0.155874 50.8366 0 51.1587 0 51.5076V52.5121C0 53.0643 0.394274 53.5665 0.962769 53.8158C1.15991 55.959 2.33816 57.7151 4.40583 58.9228C6.41389 60.0922 9.19677 60.7133 12.4519 60.7133H12.5023H12.5481C15.8032 60.7133 18.5861 60.096 20.5942 58.9228C22.6618 57.7189 23.8355 55.959 24.0372 53.8158C24.6057 53.5665 25 53.0604 25 52.5121V51.5076C25 51.1587 24.8441 50.8366 24.5599 50.5989C24.4682 50.5222 24.3673 50.4571 24.2573 50.4034V50.0161C24.2573 49.4679 23.863 49.0116 23.2899 48.8352V48.5362C23.2899 47.9265 22.7948 47.4358 22.1163 47.3169V14.9147C22.7948 14.7997 23.2899 14.3051 23.2899 13.6993V13.4003C23.8584 13.2239 24.2573 12.7676 24.2573 12.2193V11.8321C24.3673 11.7784 24.4682 11.7132 24.5599 11.6366C24.8441 11.3988 25 11.0768 25 10.7279V9.72333C25 9.15588 24.5782 8.63828 23.9868 8.39673ZM3.74564 57.5809C3.63103 57.4965 3.54392 57.3968 3.44764 57.3048C3.35595 57.2128 3.26426 57.1208 3.17715 57.0326C3.02127 56.8409 2.88373 56.6568 2.74619 56.4881C2.63616 56.3041 2.5353 56.1354 2.43902 55.9782C2.34733 55.8172 2.2969 55.66 2.23271 55.5258C2.20062 55.4568 2.17311 55.3916 2.1456 55.3302C2.1181 55.2689 2.10893 55.2075 2.09059 55.1539C2.08142 55.1155 2.07225 55.081 2.0585 55.0465C1.94846 54.7168 1.86594 54.3717 1.82009 54.0036C5.34567 54.4254 8.93545 54.6401 12.4931 54.6401C16.0508 54.6401 19.6406 54.4254 23.1661 54.0036C23.1386 54.2145 23.0974 54.4139 23.0515 54.6133C23.0378 54.6171 23.0194 54.6171 23.0057 54.6209C22.8636 54.6478 22.6527 54.6823 22.3822 54.7244C21.8366 54.8088 21.0572 54.9276 20.1128 55.0388C19.6406 55.1002 19.1271 55.15 18.5861 55.2075C18.0451 55.2612 17.4674 55.3111 16.8714 55.3609C16.2754 55.3992 15.6611 55.4529 15.033 55.4759C14.4049 55.5066 13.7677 55.5373 13.1304 55.5488C12.8095 55.5564 12.4931 55.5641 12.1722 55.5718C11.8559 55.5718 11.5395 55.5718 11.2232 55.5718C10.5951 55.5795 9.97616 55.5603 9.37557 55.5449C8.77499 55.5373 8.19732 55.5028 7.65175 55.4721C7.37667 55.4568 7.11076 55.4414 6.85402 55.4299C6.59728 55.4108 6.34971 55.3877 6.11131 55.3686C5.63451 55.3264 5.19438 55.2919 4.80928 55.2535C4.42417 55.2075 4.08491 55.1654 3.80983 55.1309C3.25509 55.0618 2.93874 55.0235 2.93874 55.0235C2.93874 55.0235 3.25509 55.0772 3.80066 55.1692C4.07574 55.2152 4.41041 55.2727 4.79552 55.3379C5.18063 55.3954 5.61617 55.4491 6.09297 55.5104C6.33137 55.5411 6.57894 55.5756 6.83568 55.6063C7.09242 55.6331 7.35833 55.66 7.63341 55.6868C8.18357 55.7405 8.76123 55.8018 9.36182 55.8363C9.96241 55.8785 10.5859 55.9245 11.2186 55.9437C11.5349 55.959 11.8559 55.9705 12.1722 55.9859C12.4931 55.9935 12.814 55.9974 13.135 56.005C13.7768 56.0204 14.4233 56.0204 15.0559 56.0165C15.6886 56.0204 16.3121 55.9897 16.9173 55.982C16.9265 55.982 16.9356 55.982 16.9494 55.982C15.464 56.2849 13.1166 56.6262 10.265 56.584C6.45058 56.5226 4.52045 57.1284 5.27233 58.2863C5.32734 58.3132 5.38236 58.34 5.44196 58.3707C5.51531 58.4052 5.58867 58.4435 5.65743 58.478C5.73537 58.5087 5.81331 58.5394 5.88667 58.5701C6.04254 58.6314 6.19842 58.6966 6.35888 58.7579C6.52393 58.8116 6.68898 58.8653 6.85402 58.9228C6.93655 58.9496 7.02366 58.9765 7.10618 59.0072C7.19329 59.034 7.28039 59.0532 7.3675 59.0762C7.54172 59.1222 7.72051 59.1682 7.89473 59.2142C8.07353 59.2525 8.25692 59.287 8.4403 59.3254C8.80249 59.4059 9.1876 59.4481 9.56354 59.5094C9.75151 59.5363 9.94865 59.5516 10.1412 59.5746C10.3338 59.5938 10.5263 59.6206 10.7235 59.6283C11.1131 59.6513 11.4983 59.682 11.8971 59.682L12.4885 59.6935L13.0754 59.6858C13.4651 59.6858 13.8548 59.6551 14.2399 59.6359C15.0055 59.5708 15.762 59.4979 16.4772 59.3522C17.1924 59.2104 17.8755 59.0455 18.4944 58.8231C18.8107 58.7234 19.095 58.5931 19.3792 58.478C19.5214 58.4205 19.6497 58.3477 19.7827 58.2825C19.9111 58.2173 20.044 58.156 20.1632 58.0831C20.4016 57.9413 20.6354 57.8071 20.8326 57.6575C20.9334 57.5847 21.0343 57.5157 21.1306 57.4467C21.2177 57.37 21.3048 57.2971 21.3873 57.2243C21.4698 57.1514 21.5569 57.0863 21.6257 57.0134C21.6945 56.9406 21.7632 56.8677 21.8274 56.8025C21.8916 56.7335 21.9558 56.6683 22.0108 56.607C22.0612 56.5418 22.1117 56.4766 22.1575 56.4153C22.2492 56.2926 22.3409 56.1891 22.4005 56.0894C22.4601 55.9897 22.5151 55.9054 22.5564 55.8363C22.6435 55.6983 22.6893 55.6255 22.6893 55.6255C22.6893 55.6255 22.6527 55.7021 22.5793 55.844C22.5426 55.9169 22.5014 56.005 22.4464 56.1086C22.3959 56.2121 22.3088 56.3233 22.2263 56.4536C22.185 56.5188 22.1392 56.584 22.0888 56.6568C22.0337 56.722 21.9741 56.791 21.9145 56.8639C21.8549 56.9367 21.7908 57.0134 21.7266 57.0901C21.6624 57.1706 21.5799 57.2396 21.5019 57.3163C21.424 57.393 21.3415 57.4735 21.2543 57.5579C21.1627 57.6345 21.0664 57.7112 20.9655 57.7917C20.773 57.9566 20.5392 58.1023 20.3008 58.2557C20.1861 58.3362 20.0532 58.4014 19.9202 58.478C19.7873 58.5471 19.6589 58.6276 19.5168 58.6928C19.2325 58.8231 18.9391 58.965 18.6182 59.0762C17.9901 59.3216 17.2932 59.5133 16.5643 59.6666C16.3809 59.7011 16.1975 59.7395 16.0095 59.774C15.8216 59.8008 15.6336 59.8315 15.441 59.8583L15.1522 59.9005L14.8634 59.9312C14.6708 59.9504 14.4737 59.9695 14.2765 59.9887C13.8823 60.0079 13.4834 60.0424 13.0845 60.0462L12.484 60.0577L11.8834 60.05C11.4891 60.05 11.0856 60.0155 10.6822 59.9887C10.4805 59.981 10.2833 59.9504 10.0862 59.9312C9.88905 59.9082 9.69191 59.8928 9.49477 59.8622C9.10508 59.797 8.71539 59.751 8.34403 59.659C8.15606 59.6168 7.96809 59.5784 7.7847 59.5363C7.60132 59.4864 7.42251 59.4366 7.24371 59.3867C7.15661 59.3599 7.06491 59.3369 6.9778 59.3101C6.8907 59.2794 6.80359 59.2487 6.72107 59.2219C6.55143 59.1605 6.3818 59.103 6.21217 59.0417C6.05171 58.9726 5.89125 58.9036 5.73079 58.8346C5.65285 58.8001 5.57491 58.7656 5.49697 58.7311C5.42362 58.6928 5.35026 58.6506 5.27691 58.6122C5.1302 58.5356 4.98808 58.4589 4.84137 58.3822C4.70383 58.2978 4.57546 58.2135 4.44709 58.1291C4.18118 57.9489 3.96571 57.7496 3.74564 57.5809ZM0.861906 52.5083C0.861906 52.1747 0.861906 51.8373 0.861906 51.5038C0.861906 51.1817 1.14615 50.9555 1.51292 50.9555C1.54502 50.9555 1.57711 50.9555 1.6092 50.9593C1.6092 50.6449 1.6092 50.3305 1.6092 50.0123C1.6092 49.6979 1.88428 49.4755 2.24647 49.4755C2.27856 49.4755 2.31524 49.4794 2.34733 49.4832C2.42068 49.4909 2.49862 49.5024 2.57197 49.51C2.57197 49.1841 2.57197 48.8621 2.57197 48.5362C2.57197 48.2333 2.84247 48.0147 3.1909 48.0147C3.21841 48.0147 3.2505 48.0147 3.27801 48.0186C6.34054 48.3368 9.41683 48.4978 12.4977 48.4978C14.3178 48.4978 16.1379 48.4403 17.958 48.3291L15.0926 48.6205C15.3264 48.9963 15.3952 49.3797 15.4135 49.6442C15.2577 49.6557 15.1064 49.6672 14.9505 49.6787C14.3316 49.7171 13.7035 49.7593 13.0754 49.7823C12.4473 49.8129 11.8146 49.8283 11.1957 49.8436C10.5767 49.8589 9.9624 49.8513 9.37098 49.8551C8.77957 49.8436 8.20649 49.8359 7.6655 49.8206C7.12451 49.7976 6.61104 49.7784 6.13882 49.7554C5.66661 49.7247 5.23564 49.6941 4.85053 49.6711C4.46543 49.6481 4.13534 49.6059 3.86026 49.5829C3.3101 49.533 2.99376 49.5024 2.99376 49.5024C2.99376 49.5024 3.30552 49.5445 3.85109 49.6212C4.12617 49.6557 4.45626 49.7094 4.83678 49.7516C5.21731 49.7938 5.65285 49.8398 6.12048 49.8934C6.5927 49.9395 7.10618 49.9778 7.64716 50.0238C8.18815 50.066 8.76123 50.0928 9.35723 50.1312C9.95323 50.1503 10.563 50.1848 11.1911 50.1963C11.8146 50.2078 12.4519 50.2232 13.0845 50.2155C13.7218 50.2193 14.3545 50.204 14.9826 50.1887C15.6061 50.1695 16.225 50.1503 16.8164 50.1158C17.1144 50.1005 17.4078 50.0852 17.6921 50.0698C17.9763 50.0506 18.256 50.0315 18.5311 50.0123C19.0767 49.974 19.5901 49.9279 20.0669 49.8858C20.3512 49.8589 20.6217 49.8321 20.8738 49.8053C18.0818 50.1542 15.6015 50.2117 15.6015 50.2117C15.8262 50.5759 15.9087 50.944 15.9316 51.2201C15.6428 51.2392 15.3539 51.2546 15.0559 51.2661C14.7213 51.2814 14.382 51.3006 14.0427 51.3159C13.7035 51.3274 13.3596 51.3351 13.0204 51.3466C12.3372 51.3734 11.6541 51.3772 10.9802 51.3811C10.3063 51.3926 9.64148 51.3772 8.99963 51.3696C8.35778 51.3696 7.73886 51.3389 7.14744 51.3197C6.85402 51.3082 6.56519 51.2967 6.29011 51.2891C6.01503 51.2737 5.74913 51.2546 5.49239 51.2392C4.97891 51.2047 4.50669 51.1817 4.09407 51.1472C3.67687 51.1089 3.31468 51.0782 3.01668 51.0513C2.42068 50.9977 2.07684 50.967 2.07684 50.967C2.07684 50.967 2.4161 51.013 3.00752 51.0897C3.30552 51.128 3.66312 51.174 4.08032 51.2277C4.49294 51.2776 4.96515 51.3197 5.47405 51.3734C5.73078 51.4003 5.9967 51.4271 6.27177 51.4539C6.54685 51.4731 6.83568 51.4961 7.1291 51.5191C7.71593 51.5613 8.33945 51.615 8.98129 51.6418C9.62314 51.6725 10.2925 51.7146 10.9664 51.73C11.645 51.7492 12.3327 51.7722 13.0204 51.776C13.3642 51.7798 13.708 51.7837 14.0519 51.7837C14.3957 51.7798 14.735 51.776 15.0743 51.7722C15.7528 51.7722 16.4176 51.7453 17.064 51.73C17.7104 51.7108 18.3339 51.6801 18.9254 51.6533C19.5168 51.6188 20.0761 51.592 20.5942 51.5498C21.6257 51.4808 22.4876 51.3964 23.0882 51.3351C23.1203 51.3312 23.1478 51.3274 23.1799 51.3236C19.8423 51.8067 16.0966 51.9677 16.0966 51.9677C16.6697 52.6962 16.5505 53.4937 16.4634 53.8234C15.1385 53.8809 13.8135 53.9116 12.4931 53.9116C8.85751 53.9116 5.22648 53.6892 1.61837 53.2445C1.20117 53.1946 0.861906 52.861 0.861906 52.5083ZM2.57197 13.6993C2.57197 13.3734 2.57197 13.0514 2.57197 12.7255C2.49862 12.7331 2.42068 12.7408 2.34733 12.7523C2.31065 12.7561 2.27856 12.76 2.24647 12.76C1.88428 12.76 1.6092 12.5337 1.6092 12.2232C1.6092 11.9088 1.6092 11.5944 1.6092 11.2762C1.57711 11.28 1.54502 11.28 1.51292 11.28C1.14615 11.28 0.861906 11.0538 0.861906 10.7317C0.861906 10.3981 0.861906 10.0607 0.861906 9.72717C0.861906 9.37443 1.20117 9.04086 1.62754 8.98718C5.23106 8.54242 8.86667 8.32005 12.5023 8.32005C15.5281 8.32005 18.5586 8.47725 21.5661 8.78781C19.338 8.63061 16.4267 8.54626 16.4267 8.54626C16.4267 8.54626 16.656 9.29008 16.115 10.1489C15.7803 10.1336 15.4456 10.1182 15.1018 10.1144C14.7625 10.1067 14.4187 10.0991 14.0748 10.0876C13.731 10.0876 13.3825 10.0876 13.0387 10.0876C12.3464 10.0799 11.6541 10.1067 10.9756 10.1259C10.2971 10.1374 9.62773 10.1911 8.98129 10.2294C8.33486 10.2601 7.71593 10.333 7.12452 10.3866C6.8311 10.4173 6.54227 10.4442 6.26719 10.471C5.99211 10.5093 5.7262 10.5438 5.46946 10.5783C4.96057 10.6474 4.48836 10.7049 4.07574 10.7701C3.66312 10.8429 3.30552 10.9042 3.0121 10.9579C2.42068 11.0614 2.086 11.119 2.086 11.119C2.086 11.119 2.42527 11.0729 3.02127 10.9886C3.31927 10.9464 3.67687 10.8966 4.09407 10.8391C4.50669 10.7854 4.97891 10.747 5.49239 10.6934C5.74913 10.6665 6.01503 10.6397 6.29011 10.6129C6.56519 10.5937 6.85402 10.5745 7.14744 10.5592C7.73886 10.5247 8.35778 10.471 8.99963 10.4633C9.64148 10.448 10.3062 10.4135 10.9848 10.425C11.6587 10.425 12.3464 10.4211 13.0341 10.4518C13.378 10.4633 13.7218 10.4748 14.0611 10.4825C14.4003 10.5017 14.7396 10.5208 15.0789 10.54C15.7528 10.5707 16.413 10.6359 17.0548 10.6857C17.6921 10.7432 18.311 10.8122 18.8933 10.8774C19.1729 10.9119 19.448 10.9464 19.7139 10.9809C17.8617 10.8506 15.9362 10.7509 15.9362 10.7509C15.9362 10.7509 16.0233 11.2762 15.7757 11.8743C15.4869 11.8628 15.1981 11.8474 14.9046 11.8398C14.2811 11.8283 13.6439 11.8091 13.0112 11.8129C12.3739 11.8091 11.7412 11.8283 11.1177 11.8436C10.4942 11.8589 9.87988 11.9011 9.28846 11.928C8.69705 11.974 8.12397 12.0123 7.58298 12.066C7.04199 12.1235 6.53309 12.1733 6.06088 12.2309C5.59325 12.296 5.16229 12.3535 4.78177 12.4034C4.40124 12.4532 4.07115 12.5184 3.80066 12.5606C3.25967 12.6526 2.94792 12.7024 2.94792 12.7024C2.94792 12.7024 3.25967 12.6603 3.80524 12.5913C4.08032 12.5568 4.41042 12.5069 4.79094 12.4686C5.17146 12.4302 5.60242 12.388 6.07464 12.342C6.54686 12.3037 7.05575 12.273 7.59673 12.2347C8.13772 12.204 8.7108 12.1848 9.29763 12.158C9.88905 12.1503 10.4988 12.1312 11.1177 12.1388C11.7367 12.1465 12.3693 12.1465 12.9974 12.1772C13.6255 12.1925 14.2536 12.2347 14.8725 12.2692C15.1797 12.2884 15.4869 12.3152 15.7895 12.3382C16.0921 12.3612 16.3901 12.3842 16.6835 12.4187C16.9769 12.4494 17.2657 12.4762 17.5454 12.5069C17.825 12.5414 18.1001 12.5721 18.366 12.6066C18.852 12.6679 19.3105 12.7331 19.7414 12.7983C17.7792 12.6526 15.4089 12.5299 15.4089 12.5299C15.4089 12.5299 15.5098 13.1434 15.1705 13.7798C14.2811 13.753 13.3917 13.7377 12.5069 13.7377C9.426 13.7377 6.34972 13.8987 3.28718 14.2169C3.25509 14.2208 3.22758 14.2208 3.20007 14.2208C2.84247 14.2169 2.57197 13.9984 2.57197 13.6993ZM12.4702 0.667134C12.4794 0.667134 12.4885 0.667134 12.4977 0.667134C12.5069 0.667134 12.516 0.667134 12.5252 0.667134C16.4451 0.667134 19.8515 2.48451 21.7174 4.93835C18.2606 1.25759 12.5023 1.06972 12.5023 1.06972C16.2296 2.1241 17.9763 2.92543 13.08 3.65775C11.324 3.91847 11.5074 4.90768 11.9109 5.62849C12.1401 5.63999 12.3693 5.65533 12.5986 5.67067C13.1258 5.71284 13.6576 5.74351 14.1757 5.79335C14.6937 5.8432 15.2072 5.88538 15.7024 5.93522C16.1975 5.9889 16.6697 6.03874 17.1236 6.08858C17.5729 6.1461 17.9993 6.19977 18.3935 6.24578C19.1821 6.3378 19.8331 6.44516 20.287 6.5065C20.7455 6.57168 21.0022 6.61002 21.0022 6.61002C21.0022 6.61002 20.7409 6.59086 20.2778 6.55252C19.8148 6.51801 19.1592 6.45666 18.366 6.41449C17.9718 6.39148 17.5408 6.36464 17.0915 6.33781C16.6376 6.31863 16.1608 6.29563 15.6657 6.27646C15.1705 6.25729 14.6617 6.24579 14.139 6.23045C13.6209 6.21511 13.0937 6.21511 12.5665 6.20744C12.2914 6.20361 12.0163 6.20744 11.7412 6.20744C11.567 6.21511 11.3928 6.21894 11.2186 6.22661C10.5859 6.24578 9.96699 6.28796 9.3664 6.3263C8.76581 6.35698 8.18815 6.41449 7.63799 6.46816C7.36291 6.495 7.09701 6.51801 6.84027 6.54485C6.58353 6.57168 6.33596 6.61003 6.09756 6.63687C5.62075 6.69821 5.18521 6.75189 4.8001 6.80557C4.41499 6.86691 4.08032 6.92442 3.80524 6.97043C3.25508 7.06245 2.93874 7.11229 2.93874 7.11229C2.93874 7.11229 3.25509 7.07012 3.80983 7.00111C4.08491 6.9666 4.42417 6.92059 4.80928 6.87458C5.19438 6.83241 5.63451 6.79789 6.11131 6.75189C6.34971 6.73272 6.59728 6.70588 6.85402 6.68671C7.11076 6.67137 7.38125 6.65603 7.65175 6.6407C8.2019 6.60619 8.77957 6.57168 9.37557 6.56018C9.97616 6.54101 10.5951 6.51801 11.2232 6.52567C11.5395 6.52567 11.8559 6.52184 12.1722 6.52184C12.4885 6.52951 12.8095 6.53335 13.1304 6.54101C13.7677 6.54868 14.4049 6.57552 15.033 6.60619C15.6611 6.6292 16.2754 6.67904 16.8714 6.71355C17.4674 6.75956 18.0405 6.80557 18.5861 6.85925C19.1317 6.91292 19.6451 6.96276 20.1174 7.02411C21.0664 7.13147 21.8458 7.24649 22.3959 7.33084C22.6481 7.36918 22.8452 7.40369 22.9873 7.42669C23.0607 7.69125 23.1203 7.9558 23.1616 8.22419C19.6406 7.80244 16.0554 7.58773 12.4977 7.58773C8.94003 7.58773 5.35485 7.80244 1.83385 8.22419C2.41152 4.30189 6.93196 0.667134 12.4702 0.667134ZM20.6033 47.3974L19.8423 27.736L19.8331 27.5022L19.6222 32.9274L19.4205 38.1572L19.1638 44.8401L19.0996 46.4581C19.0125 46.4734 18.9116 46.4926 18.7924 46.5117C18.4027 46.5808 17.8434 46.6728 17.1694 46.7648C17.0273 46.784 16.876 46.807 16.7247 46.8261C16.5138 46.853 16.2984 46.8837 16.0737 46.9105C15.684 46.9642 15.2714 47.0025 14.845 47.0485C14.4187 47.0907 13.9785 47.1329 13.5247 47.1712C13.0754 47.2019 12.6169 47.2441 12.1584 47.2632C11.7 47.2862 11.2415 47.3131 10.7876 47.3246C10.563 47.3322 10.3383 47.3399 10.1137 47.3437C10.0037 47.3437 9.89364 47.3438 9.7836 47.3476C9.67357 47.3476 9.56354 47.3476 9.45809 47.3514C9.24261 47.3514 9.02714 47.3552 8.82083 47.3552C8.61452 47.3514 8.40821 47.3476 8.21107 47.3437C7.81679 47.3322 7.44085 47.3284 7.09242 47.3054C6.74399 47.2862 6.42765 47.2671 6.14799 47.2517C5.86832 47.2249 5.62534 47.2019 5.42361 47.1866C5.02017 47.1482 4.79094 47.129 4.79094 47.129C4.79094 47.129 5.01558 47.175 5.40986 47.2517C5.607 47.2901 5.84998 47.3361 6.12506 47.3898C6.40473 47.4319 6.71648 47.4818 7.06033 47.5355C7.33999 47.5853 7.64716 47.6198 7.96809 47.6581C6.73482 47.593 5.50614 47.5048 4.28663 47.3898V14.8419C5.47863 14.7307 6.67522 14.6425 7.87181 14.5773C8.28901 14.5543 8.70163 14.5352 9.11883 14.5198C8.79791 14.5543 8.48157 14.5888 8.18357 14.6272C8.03686 14.6463 7.89473 14.6655 7.75261 14.6809C7.51879 14.7115 7.28498 14.7422 7.07408 14.7767C6.73024 14.8304 6.41849 14.8802 6.13882 14.9224C5.86374 14.9761 5.62075 15.0183 5.42361 15.0566C5.02934 15.1333 4.80469 15.1755 4.80469 15.1755C4.80469 15.1755 5.03392 15.1563 5.43737 15.1218C5.63909 15.1064 5.88208 15.0834 6.16174 15.0604C6.4414 15.0451 6.75775 15.0259 7.10618 15.0068C7.20246 14.9991 7.3079 14.9991 7.40876 14.9914C7.67008 14.9799 7.936 14.9723 8.22024 14.9646C8.61452 14.9492 9.03172 14.9492 9.46726 14.9492C9.89822 14.9454 10.3429 14.9531 10.7968 14.9646C11.2507 14.9684 11.7091 14.9914 12.1676 15.0106C12.6261 15.0259 13.0845 15.0604 13.5338 15.0834C13.6805 15.0911 13.8227 15.1026 13.9648 15.1141C14.2674 15.1371 14.5654 15.1563 14.8542 15.1793C15.2806 15.2176 15.6932 15.2521 16.0875 15.2943C16.4772 15.3327 16.8485 15.371 17.1878 15.4132C17.8663 15.4899 18.4302 15.5665 18.8199 15.6241C18.907 15.6356 18.985 15.6471 19.0537 15.6586C19.1363 15.6701 19.205 15.6816 19.26 15.6892L19.6451 21.4481L19.8285 24.1626L20.452 14.8151C20.5346 14.8227 20.6171 14.8304 20.6996 14.8381V47.3859C20.6721 47.3936 20.6354 47.3974 20.6033 47.3974Z" fill="#3F3F3F"/>
<path d="M3.78284 51.8373C4.19545 51.9064 4.67683 51.9754 5.1949 52.0329C5.71296 52.0942 6.26771 52.1402 6.82703 52.1786C7.10669 52.1939 7.38177 52.2093 7.65685 52.2208C7.93193 52.2323 8.20242 52.2361 8.46374 52.2438C8.98639 52.2514 9.47694 52.2514 9.89415 52.2361C10.3113 52.2284 10.6598 52.2016 10.9028 52.1863C11.1458 52.1709 11.2833 52.1594 11.2833 52.1594C11.2833 52.1594 11.1458 52.1479 10.9028 52.1364C10.6598 52.1249 10.3113 52.1057 9.89415 52.0827C9.47694 52.0597 8.99556 52.0367 8.47291 52.0099C7.95485 51.9792 7.40011 51.9447 6.84995 51.9102C6.57487 51.891 6.29521 51.8757 6.02472 51.8565C5.75423 51.8374 5.48373 51.8182 5.22699 51.799C4.70893 51.7568 4.22754 51.7185 3.81034 51.6878C3.39773 51.6533 3.04929 51.6265 2.80631 51.5996C2.56332 51.5766 2.42578 51.5651 2.42578 51.5651C2.42578 51.5651 2.55873 51.5996 2.79714 51.6533C3.03554 51.6993 3.3748 51.7722 3.78284 51.8373Z" fill="#3F3F3F"/>
<path d="M4.12161 49.9394C3.90613 49.9202 3.78235 49.9125 3.78235 49.9125C3.78235 49.9125 3.90154 49.9432 4.11244 49.9892C4.32333 50.0314 4.6305 50.0927 4.99727 50.1503C5.36404 50.2078 5.79958 50.2691 6.26263 50.3151C6.72568 50.3688 7.22541 50.4033 7.72055 50.4378C7.96812 50.4493 8.22027 50.4608 8.46325 50.4723C8.71082 50.4838 8.94923 50.4838 9.18305 50.4877C9.65068 50.4915 10.0862 50.4877 10.4622 50.4762C10.8381 50.4685 11.1499 50.4416 11.3653 50.4301C11.5854 50.4148 11.7092 50.4033 11.7092 50.4033C11.7092 50.4033 11.5854 50.3918 11.3653 50.3803C11.1499 50.3688 10.8381 50.3535 10.4622 50.3343C10.0908 50.3151 9.65526 50.2959 9.19221 50.2729C8.72916 50.2461 8.23402 50.2193 7.73888 50.1924C6.7486 50.1349 5.75832 50.0659 5.01561 50.0122C4.64884 49.9777 4.34167 49.9547 4.12161 49.9394Z" fill="#3F3F3F"/>
<path d="M8.91271 9.77326C8.59637 9.77326 8.2296 9.76943 7.83991 9.7886C7.44563 9.80394 7.02843 9.83077 6.61123 9.86144C6.19403 9.90362 5.77682 9.94963 5.39171 9.99564C5.00202 10.0455 4.64442 10.1107 4.33725 10.1643C4.03008 10.218 3.77792 10.2755 3.59912 10.3139C3.42032 10.356 3.31946 10.3791 3.31946 10.3791C3.31946 10.3791 3.4249 10.3676 3.6037 10.3484C3.78709 10.3292 4.04383 10.2985 4.35559 10.264C4.66734 10.2257 5.02953 10.195 5.41464 10.1528C5.80433 10.1107 6.21694 10.0723 6.63415 10.0416C7.04676 10.0033 7.46397 9.97263 7.85366 9.9458C8.24335 9.92279 8.60554 9.89212 8.92188 9.87678C9.23363 9.85761 9.49496 9.84228 9.67834 9.83078C9.86173 9.81927 9.96718 9.81161 9.96718 9.81161C9.96718 9.81161 9.86173 9.80393 9.67834 9.79627C9.49037 9.7886 9.22905 9.77326 8.91271 9.77326Z" fill="#3F3F3F"/>
<path d="M5.30927 12.0009C5.58435 11.9664 5.90527 11.9433 6.24912 11.905C6.59297 11.8705 6.95974 11.836 7.32651 11.8092C7.69328 11.7746 8.06005 11.7478 8.40849 11.7248C8.75233 11.7056 9.07784 11.675 9.35292 11.6635C9.628 11.6481 9.86181 11.6328 10.0223 11.6251C10.1827 11.6136 10.279 11.6098 10.279 11.6098C10.279 11.6098 10.1873 11.6021 10.0223 11.5906C9.86181 11.5829 9.628 11.5676 9.34834 11.5638C9.06867 11.5599 8.74316 11.5561 8.39473 11.5676C8.0463 11.5829 7.67494 11.6021 7.30359 11.6289C6.93223 11.6635 6.56546 11.7056 6.22161 11.7516C5.87777 11.7977 5.55685 11.8552 5.28635 11.905C5.01127 11.9548 4.79121 12.0085 4.63075 12.043C4.47487 12.0814 4.38318 12.1044 4.38318 12.1044C4.38318 12.1044 4.47487 12.0967 4.63533 12.0775C4.80496 12.0545 5.03419 12.0315 5.30927 12.0009Z" fill="#3F3F3F"/>
<path d="M6.67509 13.615C6.98226 13.5882 7.30777 13.5652 7.63327 13.546C7.95878 13.5192 8.28429 13.5 8.59146 13.4847C8.89863 13.4732 9.18288 13.4502 9.43045 13.4387C9.67802 13.4272 9.88433 13.4156 10.0265 13.408C10.1686 13.4003 10.2511 13.3926 10.2511 13.3926C10.2511 13.3926 10.1686 13.385 10.0265 13.3696C9.88433 13.3581 9.67802 13.339 9.43045 13.3351C9.18288 13.3275 8.89404 13.316 8.58229 13.3236C8.27053 13.3313 7.94044 13.3428 7.61035 13.362C7.28026 13.3888 6.95475 13.4233 6.64758 13.4578C6.34041 13.4923 6.05616 13.5422 5.81317 13.5844C5.57019 13.6227 5.37305 13.6725 5.23092 13.6994C5.09339 13.7339 5.01086 13.7531 5.01086 13.7531C5.01086 13.7531 5.09339 13.7454 5.23551 13.7339C5.37764 13.7224 5.58394 13.7032 5.82693 13.684C6.08367 13.6572 6.36792 13.6419 6.67509 13.615Z" fill="#3F3F3F"/>
<path d="M4.15369 6.12315C4.15369 6.12315 4.25454 6.10782 4.42876 6.08482C4.60298 6.05798 4.85055 6.0273 5.14855 5.98896C5.44655 5.94679 5.79498 5.91228 6.16175 5.86627C6.53311 5.82409 6.93197 5.78959 7.32625 5.75891C7.72512 5.72441 8.12398 5.7014 8.49534 5.68223C8.87127 5.67073 9.21971 5.64772 9.51771 5.64389C9.81571 5.64005 10.0679 5.62855 10.2467 5.62855C10.4209 5.62472 10.5217 5.62088 10.5217 5.62088C10.5217 5.62088 10.4209 5.60938 10.2467 5.59021C10.0724 5.57487 9.82029 5.54804 9.51771 5.54037C9.21512 5.52887 8.8621 5.51736 8.48616 5.5212C8.11022 5.52887 7.70678 5.54804 7.30333 5.57488C6.89988 5.60938 6.50102 5.65539 6.12966 5.70524C5.75831 5.75891 5.41446 5.8241 5.11646 5.88161C4.82304 5.93912 4.58006 6.0043 4.41042 6.04264C4.24996 6.09632 4.15369 6.12315 4.15369 6.12315Z" fill="#3F3F3F"/>
<path d="M7.57841 48.8238C7.89016 48.8391 8.22025 48.8583 8.55035 48.8775C8.88044 48.889 9.21053 48.8966 9.52229 48.9081C9.83404 48.9196 10.1229 48.912 10.3704 48.9158C10.618 48.9196 10.8289 48.9081 10.971 48.9081C11.1177 48.9043 11.2003 48.9005 11.2003 48.9005C11.2003 48.9005 11.1177 48.889 10.9756 48.8736C10.8335 48.8583 10.6272 48.8353 10.3796 48.8161C10.132 48.797 9.84321 48.7701 9.53604 48.7509C9.22429 48.7356 8.8942 48.7164 8.5641 48.6973C8.23401 48.6858 7.90392 48.6781 7.59216 48.6666C7.28041 48.6551 6.99157 48.6628 6.744 48.6589C6.49643 48.6551 6.28554 48.6666 6.14342 48.6666C5.99671 48.6704 5.91418 48.6743 5.91418 48.6743C5.91418 48.6743 5.99671 48.6858 6.13883 48.7011C6.28096 48.7126 6.48726 48.7394 6.73483 48.7586C6.9824 48.7816 7.27124 48.8085 7.57841 48.8238Z" fill="#3F3F3F"/>
</svg>
