<svg width="184" height="114" viewBox="0 0 184 114" fill="none" xmlns="http://www.w3.org/2000/svg">
<g clip-path="url(#clip0_9_1196)">
<path opacity="0.1" d="M184 78.8065C184.013 74.2035 182.909 69.6649 180.782 65.5735C178.654 61.4821 175.566 57.9581 171.776 55.2985C171.881 54.3042 171.935 53.3052 171.937 52.3054C171.937 36.4963 159.192 23.6802 143.469 23.6802C138.627 23.6751 133.866 24.9134 129.651 27.2745C118.522 20.0158 103.994 15.6226 88.0997 15.6226C62.2383 15.6226 39.9927 27.2554 30.1236 43.9352C29.5751 43.9033 29.0234 43.8858 28.4669 43.8858C12.7465 43.8858 -0.00159091 56.7018 -0.00159091 72.5109C-0.0127552 78.0963 1.61513 83.5642 4.68365 88.2483C4.68365 102.472 18.2247 114.002 34.9214 114.002H156.053C169.167 114.002 179.799 104.949 179.799 93.7801C182.558 89.2652 184.011 84.0852 184 78.8065Z" fill="#36213E"/>
<path d="M133.268 26.1726C132.055 26.6797 130.839 27.1884 129.71 27.8582C129.197 28.1611 128.705 28.496 128.178 28.7719C127.61 29.0717 127.007 29.2981 126.408 29.5405C124.757 30.2091 123.154 30.988 121.609 31.8718C121.742 30.1576 121.49 28.2951 120.456 26.9588C120.304 26.7608 120.135 26.5761 119.951 26.407C119.219 25.7341 118.181 25.5603 117.462 24.9719C117.9 24.2096 118.871 23.5176 119.532 22.9355C120.247 22.3094 120.988 21.7156 121.755 21.1543C123.29 20.0308 124.924 19.0472 126.637 18.2154C127.724 17.6876 128.86 17.2156 130.059 17.0545C130.211 17.0208 130.369 17.0347 130.511 17.0944C130.698 17.1965 130.765 17.4261 130.811 17.6318C131.034 18.6603 131.148 19.716 131.335 20.7525C131.426 21.2852 131.55 21.8118 131.706 22.3296C131.907 22.9419 132.138 23.5438 132.4 24.1331C132.69 24.8124 132.98 25.4923 133.268 26.1726Z" fill="#FBBEBE"/>
<path d="M98.8469 55.2395C98.8465 57.3563 98.1717 59.4189 96.9188 61.1329C95.6659 62.847 93.8989 64.1248 91.8701 64.7841C89.8412 65.4434 87.6541 65.4505 85.6209 64.8043C83.5877 64.1582 81.8124 62.8918 80.5482 61.1859C79.2691 59.4628 78.5798 57.379 78.5812 55.2395C78.5812 52.5751 79.6487 50.0198 81.549 48.1358C83.4493 46.2518 86.0266 45.1934 88.714 45.1934C91.4014 45.1934 93.9788 46.2518 95.8791 48.1358C97.7793 50.0198 98.8469 52.5751 98.8469 55.2395Z" fill="#BE6F72"/>
<path d="M85.0839 64.0929C85.6259 65.0194 86.1728 65.9538 86.5202 66.9632C86.8676 67.9726 87.0027 69.0905 86.7164 70.1222C90.168 68.3203 94.2759 68.4654 98.0749 67.5533C98.1765 67.5417 98.2701 67.4928 98.3371 67.4161C98.3602 67.3638 98.3721 67.3074 98.3721 67.2503C98.3721 67.1932 98.3602 67.1367 98.3371 67.0844C97.5418 64.1666 97.2358 61.1389 97.4315 58.1226L95.4484 59.2851C94.5803 59.8167 93.6806 60.296 92.7543 60.7203C91.4435 61.2896 90.0522 61.634 88.6835 62.0327C87.5994 62.3516 85.4474 62.7646 84.7654 63.7038C84.8885 63.819 84.9956 63.9498 85.0839 64.0929Z" fill="#BE6F72"/>
<path d="M79.5012 50.5832C78.8417 50.8463 78.0665 51.1493 77.4601 50.7809C77.0146 50.5083 76.8313 49.9422 76.8586 49.4239C76.8859 48.9057 77.0854 48.4145 77.243 47.9202C77.5647 46.9044 77.7384 45.8472 78.0971 44.8362C78.4557 43.8252 79.0412 42.8509 79.9708 42.3167C81.6822 41.3344 83.8969 42.146 85.7964 41.6023C86.6006 41.3742 87.3003 40.915 88.0482 40.5546C88.7961 40.1942 89.6373 39.9167 90.4447 40.1097C91.3904 40.3282 92.0885 41.1175 92.9699 41.5193C93.9349 41.9595 95.0897 41.9292 95.9679 42.5176C96.5904 42.9354 96.9828 43.6099 97.3318 44.2717C98.4485 46.3985 99.3302 48.6386 99.9615 50.9532C100.214 51.782 100.358 52.6394 100.391 53.5046C100.399 54.6112 100.097 55.6956 99.7975 56.764L99.315 58.4543C99.1364 59.0922 98.9531 59.73 98.6153 60.3073C98.2776 60.8845 97.7564 61.3709 97.1115 61.5383C96.3073 61.744 95.3712 61.3454 95.0206 60.5991C94.805 60.1366 94.8147 59.6072 94.8034 59.0985C94.7857 58.1023 94.678 57.1097 94.4818 56.1325C94.382 55.643 94.2485 55.1343 93.9124 54.7643C93.4781 54.2859 92.7865 54.1265 92.1432 54.1153C91.3904 54.1057 90.5653 54.3083 90.1262 54.9126C89.774 55.4006 89.7129 56.0863 89.2448 56.4674C89.0368 56.6256 88.7895 56.7253 88.5291 56.756C87.9981 56.8216 87.4603 56.7088 87.0017 56.4356C86.543 56.1624 86.19 55.7447 85.9991 55.2491C85.8511 54.8281 85.7787 54.3051 85.3766 54.1073C85.1676 54.0037 84.9183 54.0228 84.6947 53.9559C84.0095 53.7501 83.8294 52.889 83.7666 52.1826C83.6943 51.355 83.9725 49.7205 82.9351 49.6647C81.8173 49.6041 80.529 50.2436 79.5012 50.5832Z" fill="black"/>
<path d="M81.9315 61.4729C81.5744 61.6436 81.1836 61.8429 81.0436 62.2097C80.9889 62.3532 80.9793 62.511 80.9294 62.6577C80.7026 63.3068 79.818 63.4343 79.3612 63.951C79.1552 64.2122 79.0166 64.5192 78.9575 64.8456C78.6524 66.1325 78.7512 67.4812 79.2406 68.711C79.3824 69.1007 79.6011 69.4584 79.884 69.7634C80.701 70.5894 82.11 70.5735 83.1281 70.0106C84.1462 69.4477 84.8491 68.4606 85.4458 67.4592C85.7621 66.9551 86.0267 66.4209 86.2355 65.8645C86.419 65.2987 86.5499 64.7175 86.6264 64.128C86.9834 61.8301 87.4499 59.2819 87.289 56.9522C86.8065 56.9219 85.8849 56.8884 85.4587 57.1882C84.9247 57.5645 85.0726 58.3235 84.8796 58.8737C84.4229 60.1972 83.0975 60.8957 81.9315 61.4729Z" fill="black"/>
<path d="M82.3497 61.7775C81.7465 61.8142 80.6657 61.1524 80.0609 61.1859C79.6494 60.4737 79.2856 59.7354 78.972 58.9757C79.2937 58.5181 79.8116 58.4065 80.5949 58.9757C81.2238 59.4143 82.0923 60.9308 82.3497 61.7775Z" fill="black"/>
<path d="M91.4419 36.5824C90.7873 36.9252 90.382 36.9412 90.0587 36.8726C89.7354 36.804 89.0936 37.1229 89.0936 37.1229C83.4241 39.0461 83.2005 39.9534 83.2005 39.9534L89.7643 37.6556C91.0269 37.107 91.0511 37.2999 91.0511 37.2999C92.0161 38.1993 93.2449 37.5902 93.2449 37.5902C93.2449 37.5902 94.945 36.7929 94.4448 36.0258C93.9446 35.2588 92.0981 36.2459 91.4419 36.5824ZM94.1762 36.4388C94.1762 36.4388 93.6936 37.7145 91.9582 37.5072C91.9582 37.5072 91.1057 37.3829 91.466 36.753C91.466 36.753 93.2353 36.0163 93.7033 36.0689C94.1713 36.1215 94.1713 36.4452 94.1713 36.4452L94.1762 36.4388Z" fill="#E8E8F0"/>
<path opacity="0.1" d="M91.4419 36.5824C90.7873 36.9252 90.382 36.9412 90.0587 36.8726C89.7354 36.804 89.0936 37.1229 89.0936 37.1229C83.4241 39.0461 83.2005 39.9534 83.2005 39.9534L89.7643 37.6556C91.0269 37.107 91.0511 37.2999 91.0511 37.2999C92.0161 38.1993 93.2449 37.5902 93.2449 37.5902C93.2449 37.5902 94.945 36.7929 94.4448 36.0258C93.9446 35.2588 92.0981 36.2459 91.4419 36.5824ZM94.1762 36.4388C94.1762 36.4388 93.6936 37.7145 91.9582 37.5072C91.9582 37.5072 91.1057 37.3829 91.466 36.753C91.466 36.753 93.2353 36.0163 93.7033 36.0689C94.1713 36.1215 94.1713 36.4452 94.1713 36.4452L94.1762 36.4388Z" fill="black"/>
<path d="M91.8022 33.0264C90.8211 33.0582 90.6168 33.7854 90.6168 33.7854C90.4204 34.0178 90.3053 34.3071 90.2888 34.6098C90.2723 34.9126 90.3552 35.2125 90.5251 35.4645L88.7832 37.182C88.4532 37.3082 88.1695 37.5306 87.9694 37.8198C87.9694 37.8198 84.1446 41.1685 84.2009 41.4731C84.2009 41.4731 84.825 41.792 88.7832 38.2153L89.8223 37.3031C89.8223 37.3031 90.0523 35.5985 91.6751 35.2748C91.6751 35.2748 91.836 35.3449 91.9212 34.9654C92.0122 34.7834 92.1334 34.6179 92.2799 34.4759C92.4954 34.2781 92.7833 32.9929 91.8022 33.0264ZM92.0772 34.1793C92.0772 34.1793 91.5513 35.5251 90.8018 35.136C90.0523 34.747 90.7809 33.8492 90.7809 33.8492C92.0804 32.5958 92.0772 34.1793 92.0772 34.1793Z" fill="#E8E8F0"/>
<path opacity="0.1" d="M88.817 37.8517C88.9316 37.8517 89.0245 37.7596 89.0245 37.646C89.0245 37.5324 88.9316 37.4403 88.817 37.4403C88.7024 37.4403 88.6095 37.5324 88.6095 37.646C88.6095 37.7596 88.7024 37.8517 88.817 37.8517Z" fill="black"/>
<path d="M106.968 31.1415C106.362 30.8253 105.734 30.5545 105.087 30.3314C104.228 30.0899 103.346 29.9402 102.455 29.8849C99.6388 29.6192 96.8144 29.465 93.9815 29.4225C93.4813 29.4225 92.9698 29.4113 92.4954 29.582C92.0716 29.7432 91.6876 29.9928 91.3695 30.3139C90.8184 30.8363 90.3806 31.4646 90.0828 32.1605C89.9871 32.3348 89.9586 32.5377 90.0024 32.7314C90.0667 32.9163 90.324 33.0391 90.4704 32.9084C90.096 33.2075 89.821 33.6114 89.681 34.0675C89.541 34.5236 89.5426 35.0109 89.6855 35.4661C89.4623 35.5819 89.2729 35.7528 89.1357 35.9623C88.9985 36.1718 88.9181 36.4128 88.9022 36.6621C90.0716 36.8768 91.2752 36.8189 92.4182 36.4931C92.0772 36.407 91.7249 36.7243 91.704 37.0719C91.7063 37.2466 91.7572 37.4172 91.8512 37.5649C91.9451 37.7127 92.0785 37.8318 92.2364 37.9091C92.5554 38.0588 92.9069 38.1278 93.2594 38.11C94.6217 38.11 95.947 37.6524 97.3061 37.5934C98.3451 37.5471 99.4163 37.7337 100.409 37.4339C101.56 37.0799 102.588 36.0769 103.775 36.2858C104.722 36.4532 105.34 37.3255 105.958 38.0558C106.945 39.2215 108.166 40.1655 109.377 41.1016C110.31 41.8223 111.285 42.5622 112.441 42.8062C112.787 42.8997 113.154 42.8824 113.49 42.7568C113.77 42.608 114.006 42.3878 114.172 42.1189C115.418 40.3648 115.42 38.1563 115.347 36.1008C115.31 35.0499 115.079 34.908 114.098 34.4727C112.959 33.9656 111.824 33.4463 110.694 32.9147C109.446 32.3364 108.204 31.7453 106.968 31.1415Z" fill="#FBBEBE"/>
<path d="M120.004 35.077C119.812 35.1906 119.609 35.2852 119.399 35.3593C119.047 35.4422 118.688 35.2939 118.345 35.1791C116.898 34.7007 115.29 34.8139 113.89 34.2223C114.349 36.8337 113.748 39.519 112.219 41.6932C111.93 42.1014 111.548 42.5192 111.047 42.5511C111.27 43.232 111.959 43.6434 112.612 43.9496C113.654 44.4389 114.745 44.8204 115.867 45.0881C116.189 45.1631 116.581 45.1997 116.768 44.9287C116.88 44.7692 116.928 44.4965 117.126 44.5061C117.429 44.825 117.329 45.4788 117.747 45.6223C117.877 45.6553 118.014 45.6553 118.144 45.6223L119.077 45.4629C119.357 45.4388 119.627 45.3468 119.862 45.195C120.01 45.068 120.131 44.9143 120.221 44.7421C121.266 42.9768 121.668 40.9341 121.829 38.9169C121.908 37.9155 122.006 36.8535 121.937 35.8488C121.873 34.9877 120.76 34.7278 120.004 35.077Z" fill="#E8E8F0"/>
<path opacity="0.1" d="M120.004 35.077C119.812 35.1906 119.609 35.2852 119.399 35.3593C119.047 35.4422 118.688 35.2939 118.345 35.1791C116.898 34.7007 115.29 34.8139 113.89 34.2223C114.349 36.8337 113.748 39.519 112.219 41.6932C111.93 42.1014 111.548 42.5192 111.047 42.5511C111.27 43.232 111.959 43.6434 112.612 43.9496C113.654 44.4389 114.745 44.8204 115.867 45.0881C116.189 45.1631 116.581 45.1997 116.768 44.9287C116.88 44.7692 116.928 44.4965 117.126 44.5061C117.429 44.825 117.329 45.4788 117.747 45.6223C117.877 45.6553 118.014 45.6553 118.144 45.6223L119.077 45.4629C119.357 45.4388 119.627 45.3468 119.862 45.195C120.01 45.068 120.131 44.9143 120.221 44.7421C121.266 42.9768 121.668 40.9341 121.829 38.9169C121.908 37.9155 122.006 36.8535 121.937 35.8488C121.873 34.9877 120.76 34.7278 120.004 35.077Z" fill="black"/>
<path d="M66.0856 86.802C65.6272 86.2184 65.156 85.5997 64.4772 85.2919C64.0862 85.1355 63.6745 85.0356 63.2548 84.9953C60.9918 84.6764 58.724 84.3447 56.4401 84.2825C55.6938 84.2618 54.8928 84.2825 54.2848 84.7146C53.5884 85.2074 53.3198 86.1147 53.2812 86.9615C53.2397 87.9697 53.4416 88.9733 53.8702 89.8886C54.2987 90.8039 54.9416 91.6045 55.7453 92.2237C57.1124 93.2571 58.8398 93.6892 60.5254 94.0305C61.4116 94.2106 62.3027 94.3717 63.1969 94.5088C64.0912 94.646 65.0016 94.7544 65.8653 95.0287C67.7117 95.6155 69.341 96.9422 71.2775 97.0523C71.3685 97.0662 71.4616 97.0505 71.5429 97.0076C71.6279 96.9396 71.6851 96.8432 71.7037 96.7365C72.13 95.2456 73.6081 91.6752 71.7037 90.6323C70.7081 90.0885 69.6032 90.0646 68.6285 89.3741C67.6538 88.6837 66.8255 87.7444 66.0856 86.802Z" fill="#BE6F72"/>
<path d="M49.8264 96.6999C48.5734 95.6187 46.8444 95.0462 45.9341 93.6701C45.5336 93.0641 45.3309 92.3529 45.1299 91.6545L44.538 89.5464C44.4924 89.4168 44.4717 89.28 44.4769 89.1429C44.5219 88.7028 45.0446 88.4939 45.4853 88.4253C47.7371 88.0777 50.0821 88.9771 51.7677 90.4984C53.4533 92.0196 54.5357 94.1182 55.1711 96.2932C55.2157 96.4039 55.2225 96.526 55.1904 96.6409C55.1353 96.743 55.0484 96.8246 54.9427 96.8737C54.1288 97.3521 53.0351 98.0489 52.0846 98.1956C51.134 98.3423 50.5035 97.2771 49.8264 96.6999Z" fill="#BE6F72"/>
<path d="M104.798 87.6105L111.392 90.2273C112.018 90.4753 112.533 90.9381 112.843 91.5311C113.154 92.1241 113.239 92.808 113.083 93.458L108.176 113.922H95.9068L98.0427 90.6403C98.0427 90.6403 102.707 86.8132 104.798 87.6105Z" fill="black"/>
<path d="M111.167 85.1548C111.045 85.4195 110.865 85.681 110.892 85.9696C110.908 86.1418 110.998 86.3045 110.985 86.4751C110.96 86.81 110.569 86.9966 110.231 86.9997C109.893 87.0029 109.554 86.8945 109.221 86.9519C108.674 87.0444 108.304 87.5435 107.831 87.8321C107.172 88.234 106.348 88.2101 105.58 88.2786C103.971 88.4222 102.45 89.0201 100.994 89.701C100.005 90.1635 98.9547 90.7567 98.5815 91.7741C98.0459 93.2092 99.0849 94.7209 99.3149 96.239C99.3766 96.7501 99.3917 97.2657 99.36 97.7794C99.1911 103.141 98.9 108.564 98.5912 113.919L39.634 113.987L42.5371 108.943C45.3679 104.024 48.2743 99.0121 52.5445 95.2504C53.178 94.6834 53.8896 94.2088 54.658 93.8407L58.0822 96.8705C58.3564 97.1408 58.6744 97.3635 59.0231 97.5291C59.6665 97.789 60.387 97.6407 61.077 97.663C62.404 97.7061 63.6167 98.3774 64.7683 99.0328C65.613 99.4873 66.4255 99.9982 67.2002 100.562C67.6538 100.906 68.3084 101.122 68.7812 101.439L68.6703 95.7144C68.659 95.1977 68.651 94.6683 68.807 94.1756C69.1094 93.2188 69.9731 92.5427 70.388 91.6321C70.5762 91.2223 70.6679 90.7758 70.8255 90.3564C71.0484 89.8173 71.3253 89.3018 71.6522 88.8176L73.7866 85.4179C74.3141 84.5791 74.8401 83.7403 75.4126 82.9318C77.9169 79.3902 81.2881 76.5533 84.5676 73.7069C84.4914 72.8957 84.6803 72.0818 85.1064 71.3851C85.2744 71.1532 85.4137 70.9021 85.5214 70.6373C85.5908 70.3233 85.6109 70.0005 85.5809 69.6805C85.5809 69.5992 85.5809 69.521 85.5809 69.4349C85.6165 68.9135 85.8363 68.4211 86.2017 68.0444C86.5781 67.6569 87.0815 67.4209 87.5769 67.2008C90.1406 66.0641 92.8061 65.1683 95.5384 64.5251C95.9743 64.423 96.4359 64.3273 96.8654 64.4565C96.9956 64.8727 97.4396 65.0194 97.8835 65.1246L98.1682 65.19C98.9221 65.3514 99.6252 65.6918 100.217 66.1819C100.84 66.7209 101.268 67.4416 101.684 68.1512C104.816 73.4821 106.258 80.4761 111.103 84.3495C111.338 84.5329 111.289 84.8996 111.167 85.1548Z" fill="#36213E"/>
<path opacity="0.1" d="M130.923 19.6793C129.228 23.3741 125.887 27.0146 121.525 27.0146C121.169 27.0148 120.813 26.9972 120.459 26.962C120.307 26.7639 120.138 26.5793 119.954 26.4102C119.222 25.7373 118.185 25.5635 117.466 24.9751C117.903 24.2128 118.875 23.5208 119.536 22.9387C120.25 22.3126 120.991 21.7188 121.758 21.1575C123.293 20.034 124.927 19.0504 126.64 18.2186C127.727 17.6908 128.863 17.2188 130.063 17.0577C130.214 17.024 130.372 17.0379 130.515 17.0976C130.701 17.1997 130.769 17.4293 130.814 17.635C131.037 18.6556 130.737 18.6428 130.923 19.6793Z" fill="black"/>
<path d="M121.525 26.6941C127.477 26.6941 132.301 21.9107 132.301 16.0101C132.301 10.1095 127.477 5.32606 121.525 5.32606C115.574 5.32606 110.749 10.1095 110.749 16.0101C110.749 21.9107 115.574 26.6941 121.525 26.6941Z" fill="#FBBEBE"/>
<path d="M143.967 51.5432C143.792 52.8349 143.486 54.1059 143.054 55.3368C142.893 55.7849 142.695 56.2218 142.491 56.6524C141.292 59.1703 140.635 61.8923 140.321 64.6606C140.297 64.8785 140.257 65.0944 140.2 65.3064C139.964 66.1994 139.465 66.9967 139.084 67.8371C138.695 68.7448 138.373 69.679 138.119 70.6325C138.027 70.8717 137.996 71.1297 138.029 71.3835C138.088 71.653 138.285 71.8619 138.423 72.1059C139.137 73.3258 138.312 74.8168 138.034 76.1977C137.939 76.6761 137.897 77.196 137.583 77.5691C137.316 77.888 136.901 78.0347 136.507 78.1687C130.891 80.0618 125.142 81.5456 119.307 82.6081C118.437 82.7676 117.538 82.9159 116.674 82.7564C115.811 82.597 114.95 82.0676 114.654 81.2415C114.484 80.7631 114.513 80.2433 114.527 79.7362C114.559 78.671 114.527 77.5994 114.469 76.5262C114.283 72.9941 113.86 69.4493 114.791 66.0655C115.069 65.0672 115.462 64.1041 115.777 63.117C116.393 61.1923 116.552 59.2022 116.706 57.2057C116.834 55.56 116.957 53.908 117.329 52.2847C117.606 51.0744 117.422 49.8162 117.406 48.5756C117.374 45.7365 118.216 42.9553 119.819 40.6024C120.097 40.1958 120.403 39.794 120.549 39.3267C120.755 38.657 120.613 37.9378 120.52 37.2426C120.285 35.4699 120.38 33.6696 120.8 31.9308C120.932 31.2803 121.183 30.6592 121.541 30.0986C121.942 29.5198 122.516 29.0828 123.09 28.6714C126.424 26.2887 130.102 24.4204 134 23.1301C134.359 24.0295 134.703 25.0803 134.978 26.0004C135.015 26.1248 135.041 26.2827 134.938 26.3624C134.835 26.4421 134.729 26.3991 134.616 26.4023C134.5 26.4148 134.39 26.4618 134.301 26.5372C134.213 26.6126 134.149 26.7129 134.119 26.8248C134.063 27.0507 134.084 27.2887 134.18 27.501C134.399 28.0591 134.87 28.4753 135.324 28.8692L137.604 30.8417C137.877 31.095 138.175 31.3204 138.494 31.5146C138.78 31.6741 139.092 31.7873 139.386 31.934C140.567 32.5256 141.382 33.6786 141.838 34.9096C142.293 36.1407 142.087 37.6205 142.68 38.7893C144.652 42.6643 144.636 47.2488 143.967 51.5432Z" fill="#E8E8F0"/>
<path d="M142.468 92.0882C143.161 94.8575 143.144 97.7547 142.418 100.516C142.288 101.009 142.135 101.519 142.238 102.018C142.298 102.302 142.438 102.568 142.47 102.857C142.484 103.12 142.455 103.384 142.384 103.638C141.67 106.987 141.926 110.466 142.214 113.884C142.092 113.884 142.053 113.939 141.924 113.939H138.825C138.77 113.042 137.645 112.369 137.094 111.653C136.562 110.951 136.194 110.141 136.017 109.28C135.84 108.42 135.858 107.532 136.07 106.679C136.552 104.765 137.974 103.236 138.703 101.407C139.507 99.3948 139.438 97.1161 140.292 95.126C140.782 93.9762 141.699 93.0785 142.468 92.0882Z" fill="black"/>
<path opacity="0.1" d="M142.468 92.0882C143.161 94.8575 143.144 97.7547 142.418 100.516C142.288 101.009 142.135 101.519 142.238 102.018C142.298 102.302 142.438 102.568 142.47 102.857C142.484 103.12 142.455 103.384 142.384 103.638C141.67 106.987 141.926 110.466 142.214 113.884C142.092 113.884 142.053 113.939 141.924 113.939H138.825C138.77 113.042 137.645 112.369 137.094 111.653C136.562 110.951 136.194 110.141 136.017 109.28C135.84 108.42 135.858 107.532 136.07 106.679C136.552 104.765 137.974 103.236 138.703 101.407C139.507 99.3948 139.438 97.1161 140.292 95.126C140.782 93.9762 141.699 93.0785 142.468 92.0882Z" fill="black"/>
<path d="M135.964 76.7399C133.329 76.3221 130.777 77.6377 128.232 78.4366C124.345 79.6565 120.065 79.7314 116.473 81.6466C116.152 81.7996 115.862 82.0081 115.614 82.2621C115.323 82.62 115.139 83.0523 115.085 83.5091C114.925 84.5191 115.122 85.5531 115.643 86.4353C115.867 86.8116 116.148 87.1576 116.322 87.5611C116.734 88.5178 116.459 89.6213 116.388 90.6674C116.227 93.0035 117.141 95.2775 117.324 97.612C117.433 98.9882 117.29 100.395 117.617 101.737C117.821 102.579 118.206 103.373 118.365 104.225C118.524 105.076 118.455 105.909 118.508 106.751C118.657 109.164 119.766 111.508 119.495 113.911L140.405 113.979C139.629 111.305 138.984 108.54 139.687 105.847C139.931 104.995 140.234 104.161 140.594 103.351C141.764 100.549 142.965 97.7396 143.61 94.7768C144.255 91.8139 144.313 88.6502 143.221 85.8181C142.005 82.6608 139.42 80.0344 138.857 76.7016C137.892 76.5741 136.93 76.893 135.964 76.7399Z" fill="black"/>
<path d="M114.02 10.7988C113.818 10.3778 113.244 10.1004 112.858 10.3667C112.472 10.633 112.521 11.2278 112.427 11.7062C112.243 12.647 111.301 13.288 110.336 13.4379C109.884 13.5097 109.38 13.481 109.03 13.1908C108.804 12.9763 108.638 12.7077 108.547 12.411C107.582 9.85959 108.169 6.88082 109.749 4.65472C110.084 4.15589 110.499 3.71519 110.979 3.35031C112.309 2.39354 114.088 2.39354 115.733 2.44456C116.068 2.48048 116.405 2.4418 116.723 2.33135C116.964 2.20526 117.185 2.04401 117.379 1.85296C118.937 0.494333 121.091 -0.0765433 123.169 0.0143505C125.247 0.105244 127.246 0.811665 129.093 1.7509C129.976 2.19899 130.841 2.70768 131.533 3.41569C133.194 5.11078 133.599 7.62233 133.926 9.96324C134.277 12.4891 134.626 15.0852 134.035 17.568C133.701 18.9745 133.07 20.3491 133.144 21.7922C131.808 22.1705 130.45 22.4681 129.078 22.6836C128.435 22.7841 127.692 22.8431 127.221 22.3918C127.021 22.18 126.876 21.9241 126.796 21.6455C126.286 20.1513 126.457 18.4451 125.686 17.0641C125.364 16.5011 124.904 16.0278 124.348 15.6883C123.792 15.3487 123.158 15.1539 122.506 15.1219C122.001 15.1043 121.427 15.2271 121.168 15.6561C121.069 15.8665 120.992 16.0867 120.94 16.3131C120.583 17.3799 119.121 17.9077 118.157 17.3129C117.675 17.0131 117.345 16.5156 116.909 16.1424C116.356 15.672 115.647 15.4296 115.026 15.0501C112.957 13.7792 114.821 12.4652 114.02 10.7988Z" fill="black"/>
<path d="M97.8899 65.1262C97.0101 65.4053 96.2091 65.9108 95.3535 66.2664C93.8464 66.8899 92.1898 67.035 90.6087 67.4337C89.0897 67.8376 87.6256 68.4223 86.2484 69.175C86.1471 69.2292 85.8286 69.4939 85.5745 69.6757C85.5745 69.5944 85.5745 69.5162 85.5745 69.4301C85.6101 68.9087 85.8299 68.4163 86.1953 68.0396C86.5717 67.6521 87.0751 67.4161 87.5705 67.1961C90.1364 66.0606 92.804 65.1664 95.5385 64.5251C95.9743 64.423 96.4359 64.3273 96.8654 64.4565C97.0021 64.8727 97.446 65.0194 97.8899 65.1262Z" fill="black"/>
<path opacity="0.1" d="M75.0877 106.02C76.8184 107.934 78.3705 110.023 80.3842 111.637C78.0601 108.577 74.7259 106.534 71.7117 104.227C71.1005 103.758 69.8782 103.093 69.5082 102.415C68.9244 101.353 70.2143 102.107 70.7499 102.396C72.4226 103.297 73.8252 104.627 75.0877 106.02Z" fill="black"/>
<path opacity="0.1" d="M137.357 50.1638C137.275 50.8527 137.016 51.5065 136.753 52.1475C136.11 53.7422 135.42 55.3209 134.449 56.7353C133.78 57.7096 132.983 58.5898 132.285 59.5418C131.569 60.5523 130.912 61.6027 130.317 62.688C129.22 64.6143 128.151 66.5566 127.11 68.5148C126.613 69.4525 126.119 70.3981 125.477 71.2448C125.027 71.8163 124.543 72.3615 124.029 72.8777C122.904 74.0546 121.747 75.1421 120.74 76.4178C120.242 77.0556 119.41 77.3012 118.633 77.5181C118.374 77.6038 118.103 77.6521 117.829 77.6616C117.554 77.6426 117.283 77.5829 117.025 77.4846C116.157 77.2221 115.308 76.9025 114.484 76.5278C114.297 72.9957 113.874 69.4509 114.805 66.0671C115.084 65.0688 115.476 64.1057 115.791 63.1186C116.407 61.1939 116.567 59.2038 116.721 57.2073C116.912 56.807 117.117 56.41 117.314 56.0241C118.656 53.3961 119.787 50.5019 119.438 47.5726C119.349 47.0445 119.287 46.5122 119.253 45.9779C119.256 45.3228 119.367 44.6727 119.582 44.0532C120.064 42.5901 120.859 41.2479 121.915 40.1192C122.97 38.9905 124.259 38.1021 125.694 37.5152C126.147 37.3053 126.641 37.1964 127.142 37.1963C127.785 37.2298 128.401 37.5615 129.028 37.4403C131.153 38.3668 132.872 39.9486 134.158 41.8654C135.443 43.7821 135.513 46.3431 136.911 48.1801C137.324 48.7382 137.437 49.4765 137.357 50.1638Z" fill="black"/>
<path d="M90.8516 41.5098L90.784 41.3647L88.1559 42.567L87.7168 42.7679L87.2794 42.9673L90.9851 50.9324L91.4226 50.7315L91.8617 50.5306L94.4898 49.3282L94.4222 49.1847L91.7941 50.3871L91.7266 50.242L94.3547 49.0396L94.2871 48.8945L91.659 50.0969L91.5915 49.9517L94.2196 48.7494L94.1536 48.6043L91.5239 49.8066L91.4563 49.6631L94.0861 48.4608L94.0185 48.3157L91.3888 49.518L91.3212 49.3729L93.951 48.1705L93.8834 48.0254L91.2553 49.2278L91.1877 49.0827L93.8159 47.8803L93.7483 47.7368L91.1202 48.9392L91.0526 48.794L93.6808 47.5917L93.6132 47.4466L90.9851 48.6489L90.9175 48.5038L93.5473 47.3015L93.4797 47.1564L90.85 48.3587L90.7824 48.2152L93.4122 47.0112L93.3446 46.8677L90.7149 48.0701L90.6489 47.925L93.277 46.7226L93.2095 46.5775L90.5814 47.7799L90.5138 47.6347L93.1419 46.4324L93.0744 46.2873L90.4463 47.4896L90.3787 47.3461L93.0068 46.1438L92.9409 45.9987L90.3112 47.201L90.2436 47.0559L92.8733 45.8535L92.8058 45.7084L90.1761 46.9108L90.1101 46.7657L92.7382 45.5649L92.6707 45.4198L90.0426 46.6222L89.975 46.477L92.6031 45.2747L92.5356 45.1296L89.9075 46.3319L89.8399 46.1868L92.468 44.9845L92.4021 44.8394L89.7724 46.0433L89.7048 45.8982L92.3345 44.6959L92.267 44.5507L89.6373 45.7531L89.5697 45.608L92.1994 44.4056L92.1319 44.2605L89.5038 45.4629L89.4362 45.3178L92.0643 44.1154L91.9968 43.9719L89.3687 45.1742L89.3011 45.0291L91.9292 43.8268L91.8617 43.6817L89.2335 44.884L89.166 44.7389L91.7957 43.5366L91.7282 43.393L89.0984 44.5938L89.0309 44.4503L91.6606 43.2479L91.5931 43.1028L88.9633 44.3052L88.8974 44.1601L91.5255 42.9577L91.458 42.8126L88.8298 44.0149L88.7623 43.8698L91.3904 42.6675L91.3228 42.524L88.6947 43.7263L88.6272 43.5812L91.2553 42.3789L91.1894 42.2337L88.5596 43.4361L88.4921 43.291L91.1218 42.0886L91.0542 41.9435L88.4245 43.1459L88.357 43.0024L90.9867 41.8L90.9191 41.6549L88.2894 42.8572L88.2235 42.7121L90.8516 41.5098Z" fill="black"/>
<path opacity="0.1" d="M99.1027 59.0284C98.7633 59.5977 98.2438 60.092 97.5988 60.2594C96.7946 60.4651 95.8585 60.0665 95.5079 59.3202C95.2924 58.8577 95.302 58.3283 95.2908 57.8196C95.273 56.8234 95.1654 55.8308 94.9691 54.8536C94.8694 54.3641 94.7359 53.8554 94.3997 53.4854C93.9655 53.0071 93.2739 52.8476 92.6305 52.8364C91.8778 52.8269 91.0527 53.0294 90.6136 53.6337C90.2613 54.1217 90.2002 54.8074 89.7322 55.1885C89.5241 55.3467 89.2769 55.4465 89.0165 55.4771C88.4855 55.5427 87.9477 55.4299 87.489 55.1567C87.0304 54.8836 86.6774 54.4658 86.4864 53.9702C86.3385 53.5492 86.2661 53.0262 85.864 52.8285C85.6549 52.7248 85.4056 52.7439 85.182 52.677C84.4969 52.4713 84.3167 51.6102 84.254 50.9037C84.1816 50.0761 84.4599 48.4416 83.4225 48.3858C82.3127 48.3252 81.0244 48.9647 79.9966 49.3043C79.3372 49.5674 78.5619 49.8704 77.9555 49.5021C77.51 49.2294 77.3267 48.6633 77.354 48.145C77.3813 47.6268 77.5808 47.1356 77.7384 46.6413C78.0086 45.8057 78.1711 44.9382 78.4188 44.0899C78.3023 44.3299 78.1987 44.5758 78.1083 44.8266C77.7513 45.8328 77.584 46.8996 77.2559 47.9106C77.0951 48.405 76.8988 48.8961 76.8715 49.4144C76.8441 49.9326 77.0323 50.4987 77.473 50.7714C78.0794 51.1397 78.8546 50.8368 79.5141 50.5736C80.5418 50.234 81.8302 49.5946 82.9399 49.6551C83.9774 49.711 83.6991 51.3454 83.7715 52.1731C83.8342 52.8795 84.0144 53.7406 84.6995 53.9463C84.9231 54.0133 85.1724 53.9941 85.3815 54.0978C85.7836 54.2955 85.864 54.8186 86.0039 55.2395C86.1948 55.7351 86.5479 56.1529 87.0065 56.4261C87.4652 56.6992 88.003 56.8121 88.5339 56.7465C88.7943 56.7158 89.0416 56.6161 89.2497 56.4578C89.7177 56.0767 89.7788 55.391 90.1311 54.9031C90.5702 54.2955 91.3953 54.093 92.148 54.1058C92.7913 54.1153 93.491 54.2748 93.9172 54.7548C94.2534 55.1247 94.3869 55.6334 94.4866 56.123C94.6828 57.1001 94.7905 58.0928 94.8083 59.089C94.8195 59.5977 94.8083 60.1271 95.0254 60.5895C95.3744 61.3358 96.3121 61.7345 97.1163 61.5287C97.7597 61.3613 98.2808 60.867 98.6202 60.2977C98.8785 59.8329 99.0773 59.3379 99.212 58.8243C99.1767 58.8976 99.1413 58.963 99.1027 59.0284Z" fill="black"/>
<path d="M107.376 57.9695C106.09 56.7449 104.927 55.3894 103.772 54.0372C102.665 52.7439 101.555 51.4443 100.664 49.998C100.113 49.1034 99.6206 48.1275 98.7729 47.5008C98.1296 47.0224 97.3431 46.7992 96.6322 46.434C96.1207 46.1709 95.6495 45.8376 95.1444 45.5649C94.0428 44.9745 92.8029 44.6845 91.5513 44.7245C91.0318 44.7421 90.4415 44.8617 90.1745 45.305C90.0828 45.4565 90.0394 45.6335 89.9461 45.7834C89.6582 46.2618 88.965 46.3973 88.7285 46.8996C88.3297 47.7448 89.5327 48.5214 89.6083 49.451C89.6437 49.9167 89.3848 50.3504 89.3092 50.8112C89.1805 51.6086 89.5971 52.3692 89.9992 53.0644C90.8597 54.5538 91.9067 56.1851 93.5971 56.5599C94.1955 56.6922 94.8276 56.6492 95.4114 56.8373C95.882 57.0141 96.3175 57.2716 96.6981 57.598C98.2863 58.8391 99.686 60.3004 100.854 61.937C101.398 62.6976 101.89 63.4917 102.438 64.2476C104.184 66.6422 106.475 68.5948 109.125 69.9468L111.098 63.7277C111.402 62.771 111.642 61.4586 110.776 60.7123C109.692 59.7444 108.443 58.9805 107.376 57.9695Z" fill="#FBBEBE"/>
<path d="M128.86 36.6494C128.232 36.7689 127.61 36.4389 126.973 36.4054C126.473 36.4052 125.978 36.514 125.525 36.7243C124.091 37.3115 122.801 38.2 121.746 39.3287C120.691 40.4574 119.895 41.7994 119.413 43.2623C119.2 43.8843 119.091 44.5365 119.089 45.1934C119.098 45.7276 119.211 46.2538 119.273 46.788C119.623 49.7125 118.492 52.6084 117.152 55.2395C116.411 56.6922 115.574 58.2247 115.75 59.8432C115.772 60.0601 115.807 60.3041 115.674 60.4811C115.513 60.6916 115.166 60.7027 115.016 60.9244C114.867 61.146 115.003 61.4809 114.884 61.7313C114.723 62.0853 114.199 62.0422 113.824 61.9162C112.797 61.5716 111.846 61.0358 111.021 60.3376C109.684 61.111 108.254 62.0326 107.815 63.5029C107.712 63.878 107.641 64.261 107.601 64.6478L106.911 70.3566C106.82 71.1125 106.775 71.9991 107.35 72.503C108.343 73.3736 110.11 72.2462 111.172 73.034C111.444 73.2349 111.621 73.5347 111.815 73.8074C112.975 75.3845 114.971 76.0781 116.843 76.6777C117.101 76.7748 117.372 76.8339 117.647 76.8531C117.921 76.8455 118.192 76.7971 118.452 76.7096C119.23 76.4927 120.06 76.2408 120.559 75.6109C121.567 74.3352 122.724 73.2477 123.849 72.0708C124.362 71.5539 124.846 71.0087 125.297 70.4379C125.94 69.5896 126.432 68.644 126.929 67.7063C127.968 65.7481 129.036 63.8059 130.133 61.8796C130.734 60.7987 131.398 59.753 132.12 58.7477C132.819 57.7909 133.614 56.9139 134.283 55.9412C135.248 54.5251 135.941 52.9401 136.588 51.3534C136.85 50.7156 137.109 50.057 137.193 49.3697C137.276 48.6824 137.164 47.9441 136.742 47.3908C135.345 45.5522 135.275 42.9928 133.99 41.076C132.705 39.1593 130.986 37.5742 128.86 36.6494Z" fill="#E8E8F0"/>
<path d="M90.895 42.1636C90.8575 42.1872 90.8256 42.2188 90.8017 42.256C90.7778 42.2932 90.7624 42.3351 90.7567 42.3788C90.7567 42.4586 90.8226 42.5208 90.858 42.5925C90.9561 42.7966 90.7985 43.0326 90.6184 43.173C90.4382 43.3133 90.2195 43.4217 90.1214 43.6274C90.1063 43.6547 90.0996 43.6857 90.1021 43.7167C90.1129 43.7588 90.1379 43.7959 90.1728 43.822C90.2788 43.9427 90.4162 44.0321 90.5701 44.0803C90.8162 44.1313 91.0526 43.9703 91.2617 43.8379C91.4885 43.6957 91.7301 43.5781 91.9823 43.4871C92.0604 43.4642 92.1338 43.4281 92.1994 43.3803C92.2798 43.3008 92.3293 43.1958 92.3393 43.0837C92.394 42.6834 92.1785 42.2991 91.9324 41.9674C91.6365 41.5767 91.1475 41.9483 90.895 42.1636Z" fill="black"/>
<path d="M66.219 89.4207L49.5238 80.9723C49.4019 80.9106 49.2527 80.9585 49.1906 81.0793L44.9357 89.3442C44.8735 89.465 44.9219 89.6129 45.0437 89.6745L61.739 98.123C61.8608 98.1846 62.01 98.1367 62.0722 98.0159L66.327 89.751C66.3892 89.6302 66.3409 89.4823 66.219 89.4207Z" fill="black"/>
<path d="M64.6819 89.6331L50.2788 82.3446L46.6243 89.4433L61.0274 96.7319L64.6819 89.6331Z" fill="#E8E8F0"/>
<path d="M48.1347 85.7361C48.1788 85.6506 48.1086 85.5278 47.9781 85.4617C47.8475 85.3956 47.706 85.4114 47.662 85.4969C47.618 85.5824 47.6881 85.7053 47.8187 85.7713C47.9492 85.8374 48.0907 85.8216 48.1347 85.7361Z" fill="#E6E8EC"/>
<path d="M63.8854 93.7273C63.9577 93.5869 63.8418 93.3848 63.6266 93.2759C63.4114 93.167 63.1784 93.1925 63.1061 93.333C63.0338 93.4734 63.1497 93.6755 63.3649 93.7844C63.5801 93.8933 63.8131 93.8677 63.8854 93.7273Z" fill="#E6E8EC"/>
<g opacity="0.1">
<path d="M134.032 16.4454C133.698 17.8519 133.067 19.2264 133.141 20.6696C131.805 21.0478 130.447 21.3455 129.075 21.561C128.432 21.6614 127.689 21.7204 127.217 21.2692C127.018 21.0573 126.873 20.8015 126.793 20.5229C126.283 19.0287 126.453 17.3224 125.683 15.9415C125.361 15.3784 124.9 14.9052 124.345 14.5656C123.789 14.2261 123.155 14.0313 122.503 13.9992C121.998 13.9817 121.424 14.1045 121.165 14.5334C121.066 14.7438 120.989 14.9641 120.937 15.1904C120.58 16.2572 119.118 16.7851 118.154 16.1903C117.672 15.8905 117.342 15.3929 116.906 15.0198C116.353 14.5494 115.643 14.307 115.023 13.9275C114.463 13.5862 114.194 13.2418 114.08 12.8862C113.938 13.6532 113.898 14.358 115.023 15.0437C115.643 15.4232 116.353 15.6656 116.906 16.136C117.342 16.506 117.665 17.0067 118.154 17.3065C119.119 17.8981 120.58 17.3735 120.937 16.3067C120.989 16.0803 121.066 15.8601 121.165 15.6497C121.424 15.2207 121.998 15.0979 122.503 15.1155C123.155 15.1475 123.789 15.3423 124.345 15.6819C124.9 16.0214 125.361 16.4947 125.683 17.0577C126.453 18.4387 126.283 20.1449 126.793 21.6391C126.874 21.9201 127.022 22.1777 127.224 22.3902C127.695 22.8367 128.44 22.7825 129.081 22.682C130.454 22.4665 131.812 22.1689 133.148 21.7906C133.069 20.3475 133.704 18.9729 134.039 17.5664C134.296 16.4155 134.4 15.2359 134.346 14.0582C134.32 14.8622 134.215 15.6618 134.032 16.4454Z" fill="black"/>
<path d="M114.176 11.2453C114.294 10.7208 114.238 10.1727 114.016 9.68259C113.813 9.2616 113.239 8.98414 112.853 9.25044C112.467 9.51675 112.521 10.1115 112.427 10.5899C112.243 11.5308 111.301 12.1718 110.336 12.3217C109.884 12.3935 109.38 12.3648 109.03 12.0745C108.804 11.8601 108.638 11.5915 108.547 11.2948C108.3 10.6315 108.15 9.93667 108.102 9.23131C108.02 10.3106 108.172 11.3947 108.547 12.411C108.638 12.7077 108.804 12.9763 109.03 13.1908C109.38 13.481 109.884 13.5097 110.336 13.4379C111.289 13.288 112.237 12.6406 112.427 11.7062C112.518 11.2278 112.456 10.6489 112.854 10.3747C113.253 10.1004 113.819 10.3858 114.017 10.8068C114.086 10.9468 114.14 11.0939 114.176 11.2453Z" fill="black"/>
</g>
</g>
<defs>
<clipPath id="clip0_9_1196">
<rect width="184" height="114" fill="white"/>
</clipPath>
</defs>
</svg>
