<svg width="100" height="100" viewBox="0 0 100 100" fill="none" xmlns="http://www.w3.org/2000/svg">
<path d="M35.665 0.000511828C35.5108 -0.00117109 35.3592 0.0013532 35.2048 0.00724342C34.3822 0.0392189 33.5591 0.18395 32.7528 0.461001C29.528 1.56752 27.3941 4.46635 26.475 7.86964C25.5561 11.2727 25.745 15.2882 27.1324 19.2819C27.3545 19.921 27.6057 20.5416 27.8754 21.1422L29.9201 27.0787L41.4239 31.0428C42.0284 30.9742 42.6313 30.8388 43.2252 30.6351C46.45 29.5282 48.5841 26.6298 49.503 23.2261C50.4218 19.8232 50.2329 15.8078 48.8456 11.8138C47.4583 7.82041 45.1106 4.54461 42.2786 2.43317C40.2875 0.948416 37.9798 0.0308043 35.6654 0.000722077L35.665 0.000511828ZM35.3958 3.92529C36.8102 3.87144 38.3644 4.41376 39.9311 5.58213C42.0207 7.13967 43.9806 9.7909 45.1313 13.1027C46.2819 16.4142 46.3787 19.6983 45.7034 22.201C45.0276 24.7035 43.6897 26.3149 41.943 26.9144C40.1964 27.5135 38.1355 27.065 36.0462 25.5071C35.3503 24.9887 34.6698 24.3452 34.028 23.6012L30.6359 17.3554C29.6847 14.2631 29.6354 11.2296 30.2678 8.88822C30.9431 6.38593 32.2809 4.78106 34.0278 4.18152C34.4645 4.03174 34.9235 3.94317 35.3951 3.92529H35.3958ZM11.9205 26.224C10.5048 26.253 9.14735 26.4386 7.87109 26.7829C4.46787 27.7018 1.56931 29.8425 0.462179 33.0676C-0.644319 36.2925 0.323341 39.7542 2.43452 42.5866C4.54592 45.4181 7.82187 47.7727 11.8154 49.1605C15.8091 50.5479 19.8242 50.7298 23.2274 49.8112C26.1319 49.0265 28.6686 47.3583 30.0379 44.8806L30.0511 44.8939L33.0683 39.4833L34.4557 40.2328C34.4611 40.2488 34.4632 40.2501 34.4689 40.2659L46.6566 46.8595L46.6629 46.8663L99.5035 75.5483C102.498 66.8897 91.8871 52.6054 69.2902 44.7887L21.1566 28.1898C20.5519 27.9185 19.9271 27.6644 19.2832 27.4409C16.7872 26.5734 14.2797 26.1767 11.9205 26.2246V26.224ZM11.9929 30.162C12.3659 30.1547 12.7496 30.1608 13.1366 30.1816C14.4775 30.2542 15.8995 30.4997 17.3312 30.9376L23.6021 34.3428C24.3468 34.9859 24.99 35.6656 25.5088 36.3613C27.0665 38.4506 27.515 40.5118 26.9155 42.2578C26.316 44.0047 24.7046 45.3426 22.2023 46.0183C19.6999 46.6942 16.4159 46.5972 13.1042 45.4465C9.79253 44.2958 7.14156 42.3293 5.58384 40.24C4.02611 38.1511 3.58415 36.0899 4.18367 34.3434C4.7832 32.5966 6.38784 31.2587 8.89029 30.583C9.8285 30.3297 10.874 30.1841 11.9931 30.1622L11.9929 30.162ZM36.3619 45.7684C38.9746 53.3449 41.7312 61.3402 44.4804 69.2897C52.2966 91.8871 66.5809 102.498 75.2394 99.5034L50.101 53.2039L36.3617 45.7688L36.3619 45.7684Z" fill="black"/>
</svg>
