<svg width="40" height="112" viewBox="0 0 40 112" fill="none" xmlns="http://www.w3.org/2000/svg">
<g clip-path="url(#clip0_9_1194)">
<path fill-rule="evenodd" clip-rule="evenodd" d="M20.0218 33.4688C21.1007 33.4685 22.169 33.6914 23.1655 34.1246C24.1619 34.5579 25.0667 35.193 25.8281 35.9935C26.5926 36.7906 27.1992 37.738 27.613 38.7813C28.0268 39.8246 28.2396 40.9432 28.2394 42.0729V51.543C28.1699 53.7777 27.2733 55.8965 25.7389 57.4516C24.2046 59.0067 22.1528 59.8761 20.0174 59.8761C17.882 59.8761 15.8302 59.0067 14.2959 57.4516C12.7616 55.8965 11.8649 53.7777 11.7954 51.543V42.0729C11.7936 40.946 12.004 39.8297 12.4148 38.7881C12.8256 37.7464 13.4286 36.7999 14.1893 36.0026C14.9536 35.198 15.8625 34.5599 16.8635 34.125C17.8646 33.6901 18.938 33.4671 20.0218 33.4688ZM15.8346 99.4401C15.6782 99.4545 15.5207 99.4347 15.3721 99.3819C15.2234 99.3291 15.0869 99.2446 14.9711 99.1336C14.8553 99.0225 14.7629 98.8875 14.6997 98.7371C14.6364 98.5867 14.6038 98.4241 14.6038 98.2598C14.6038 98.0954 14.6364 97.9329 14.6997 97.7824C14.7629 97.632 14.8553 97.497 14.9711 97.386C15.0869 97.275 15.2234 97.1904 15.3721 97.1376C15.5207 97.0848 15.6782 97.065 15.8346 97.0794H24.5397C24.6961 97.065 24.8536 97.0848 25.0023 97.1376C25.1509 97.1904 25.2875 97.275 25.4032 97.386C25.519 97.497 25.6114 97.632 25.6746 97.7824C25.7379 97.9329 25.7705 98.0954 25.7705 98.2598C25.7705 98.4241 25.7379 98.5867 25.6746 98.7371C25.6114 98.8875 25.519 99.0225 25.4032 99.1336C25.2875 99.2446 25.1509 99.3291 25.0023 99.3819C24.8536 99.4347 24.6961 99.4545 24.5397 99.4401H15.8346ZM12.8313 92.3216C12.5312 92.3216 12.2434 92.1968 12.0311 91.9746C11.8189 91.7524 11.6997 91.451 11.6997 91.1367C11.6997 90.8225 11.8189 90.5211 12.0311 90.2989C12.2434 90.0767 12.5312 89.9518 12.8313 89.9518H27.4995C27.6481 89.9518 27.7952 89.9825 27.9325 90.042C28.0698 90.1016 28.1946 90.1889 28.2997 90.2989C28.4047 90.4089 28.4881 90.5395 28.545 90.6833C28.6018 90.827 28.6311 90.9811 28.6311 91.1367C28.6311 91.2923 28.6018 91.4464 28.545 91.5902C28.4881 91.7339 28.4047 91.8645 28.2997 91.9746C28.1946 92.0846 28.0698 92.1719 27.9325 92.2314C27.7952 92.291 27.6481 92.3216 27.4995 92.3216H12.8313ZM39.8172 26.0495C39.9594 26.6645 40.0353 27.2943 40.0435 27.9271C39.173 53.2383 37.432 78.9688 36.161 104.326C36.0702 106.38 35.258 108.328 33.8803 109.794C33.2051 110.503 32.4013 111.063 31.5163 111.442C30.6313 111.821 29.6829 112.011 28.7269 112H13.4581C12.5197 112.004 11.5901 111.811 10.7242 111.433C9.85844 111.054 9.07413 110.497 8.41784 109.794C7.05744 108.329 6.23436 106.409 6.09358 104.371L0 28.4284C0 28.1914 0 27.9544 0 27.7357C0.00215821 27.1227 0.0663542 26.5116 0.191512 25.9128V4.99479C0.196688 3.93247 0.522886 2.89912 1.12337 2.04281C1.72385 1.1865 2.56779 0.551171 3.53428 0.227865V8.03906C3.53428 8.08741 3.55262 8.13378 3.58527 8.16796C3.61792 8.20215 3.6622 8.22135 3.70838 8.22135H6.56366C6.60983 8.22135 6.65411 8.20215 6.68676 8.16796C6.71941 8.13378 6.73776 8.08741 6.73776 8.03906V0H8.62677V8.03906C8.62674 8.06379 8.63151 8.08826 8.6408 8.11099C8.65009 8.13373 8.6637 8.15424 8.6808 8.1713C8.6979 8.18835 8.71813 8.20158 8.74027 8.21018C8.76241 8.21879 8.78599 8.22259 8.80958 8.22135H11.6561C11.7023 8.22135 11.7466 8.20215 11.7793 8.16796C11.8119 8.13378 11.8302 8.08741 11.8302 8.03906V0H13.728V8.03906C13.7301 8.06392 13.737 8.08807 13.7484 8.11C13.7598 8.13193 13.7753 8.15118 13.7941 8.16656C13.8129 8.18194 13.8344 8.19312 13.8575 8.19941C13.8806 8.2057 13.9046 8.20697 13.9282 8.20312H16.7748C16.8218 8.20318 16.867 8.18427 16.901 8.15032C16.9351 8.11638 16.9553 8.07 16.9576 8.02083V0H18.8466V8.03906C18.8466 8.08741 18.8649 8.13378 18.8976 8.16796C18.9302 8.20215 18.9745 8.22135 19.0207 8.22135H21.8498C21.896 8.22135 21.9403 8.20215 21.9729 8.16796C22.0056 8.13378 22.0239 8.08741 22.0239 8.03906V0H23.9129V8.03906C23.9129 8.08741 23.9313 8.13378 23.9639 8.16796C23.9966 8.20215 24.0409 8.22135 24.087 8.22135H26.9859C27.032 8.22135 27.0763 8.20215 27.109 8.16796C27.1416 8.13378 27.16 8.08741 27.16 8.03906V0H29.0577V8.03906C29.0577 8.08741 29.076 8.13378 29.1087 8.16796C29.1413 8.20215 29.1856 8.22135 29.2318 8.22135H32.0348C32.081 8.22135 32.1253 8.20215 32.1579 8.16796C32.1906 8.13378 32.2089 8.08741 32.2089 8.03906V0H34.1066V8.03906C34.1066 8.08741 34.125 8.13378 34.1576 8.16796C34.1903 8.20215 34.2346 8.22135 34.2807 8.22135H37.136C37.1822 8.22135 37.2265 8.20215 37.2591 8.16796C37.2918 8.13378 37.3101 8.08741 37.3101 8.03906V0.610677C38.0624 1.04056 38.6905 1.67435 39.1285 2.44567C39.5665 3.21698 39.7984 4.09743 39.7998 4.99479V26.0495H39.8172ZM37.2057 26.3776H2.78564C2.67469 26.8211 2.61622 27.2772 2.61153 27.7357C2.60088 27.9087 2.60088 28.0822 2.61153 28.2552L8.70511 104.143C8.79529 105.538 9.35698 106.853 10.2894 107.853C10.7043 108.297 11.2001 108.649 11.7474 108.888C12.2947 109.128 12.8823 109.25 13.4755 109.247H28.7269C29.3311 109.247 29.9292 109.122 30.4866 108.878C31.044 108.633 31.5496 108.276 31.9739 107.826C32.8946 106.849 33.4373 105.55 33.4973 104.18C34.7682 79.2604 36.9793 52.6641 37.3711 27.918C37.374 27.3948 37.3096 26.8736 37.1795 26.3685L37.2057 26.3776ZM20.0218 38.7643C20.8206 38.7643 21.6016 39.0124 22.2658 39.4771C22.93 39.9418 23.4478 40.6023 23.7535 41.3751C24.0592 42.1478 24.1392 42.9982 23.9833 43.8186C23.8275 44.6389 23.4428 45.3925 22.8779 45.984C22.313 46.5754 21.5933 46.9782 20.8098 47.1414C20.0262 47.3046 19.2141 47.2208 18.476 46.9007C17.738 46.5806 17.1071 46.0386 16.6633 45.3431C16.2195 44.6476 15.9826 43.8299 15.9826 42.9935C15.9814 42.4378 16.0851 41.8873 16.2877 41.3736C16.4903 40.86 16.7878 40.3933 17.1631 40.0003C17.5384 39.6074 17.9841 39.2959 18.4747 39.0838C18.9653 38.8717 19.491 38.7631 20.0218 38.7643ZM20.0218 35.6927C21.6379 35.6927 23.1878 36.3649 24.3306 37.5614C25.4733 38.7579 26.1153 40.3808 26.1153 42.0729V51.543C26.1153 53.2351 25.4733 54.8579 24.3306 56.0545C23.1878 57.251 21.6379 57.9232 20.0218 57.9232C18.4056 57.9232 16.8557 57.251 15.7129 56.0545C14.5702 54.8579 13.9282 53.2351 13.9282 51.543V42.0729C13.9282 40.3808 14.5702 38.7579 15.7129 37.5614C16.8557 36.3649 18.4056 35.6927 20.0218 35.6927Z" fill="black"/>
</g>
<defs>
<clipPath id="clip0_9_1194">
<rect width="40" height="112" fill="white"/>
</clipPath>
</defs>
</svg>
